<svg version="1.1" xmlns="http://www.w3.org/2000/svg" xmlns:xlink="http://www.w3.org/1999/xlink" x="0px" y="0px"
	 viewBox="0 0 45 45" style="enable-background:new 0 0 45 45;" xml:space="preserve">
<g id="critical">
	<path style="fill:#FFFFFF;" d="M38.9,14.2l-2.6-0.4c-0.2-0.8-0.5-1.5-0.8-2.2l1.7-2.1c0.4-0.4,0.3-1.1,0-1.5l-1-1.2
		c-0.4-0.4-1-0.5-1.5-0.2L32.4,8c-1-0.7-2.1-1.2-3.3-1.5l-0.4-2.6c-0.1-0.6-0.6-1-1.1-1h-1.6c-0.6,0-1,0.4-1.1,1l-0.4,2.6
		c-1,0.2-1.9,0.6-2.8,1.2l-2.1-1.5C19,5.8,18.4,5.8,18,6.2l-1.1,1.1c-0.4,0.4-0.4,1-0.1,1.5l1.5,2.1c-0.5,0.8-0.9,1.8-1.1,2.8
		l-2.6,0.4c-0.6,0.1-1,0.6-1,1.1v1.6c0,0.6,0.4,1,1,1.1l2.6,0.4c0.2,0.8,0.5,1.6,0.9,2.3l-1.7,2.1c-0.4,0.4-0.3,1.1,0,1.5l1,1.2
		c0.4,0.4,1,0.5,1.5,0.2l2.3-1.4c1,0.7,2,1.1,3.2,1.4l0.4,2.6c0.1,0.6,0.6,1,1.1,1h1.6c0.6,0,1-0.4,1.1-1l0.4-2.6
		c1-0.2,1.9-0.6,2.7-1.1l2.2,1.6c0.5,0.3,1.1,0.3,1.5-0.1l1.1-1.1c0.4-0.4,0.5-1,0.1-1.5l-1.6-2.2c0.5-0.8,0.9-1.8,1.1-2.8l2.6-0.4
		c0.6-0.1,1-0.6,1-1.1v-1.6C39.9,14.7,39.5,14.2,38.9,14.2 M26.7,21c-2.7,0-4.9-2.2-4.9-4.9c0-2.7,2.2-4.9,4.9-4.9
		c2.7,0,4.9,2.2,4.9,4.9C31.7,18.8,29.5,21,26.7,21"/>
	<path style="fill:#FFFFFF;" d="M23.2,32.5l-1.8-0.1c-0.2-0.5-0.4-1-0.7-1.5l1-1.5c0.2-0.3,0.2-0.7-0.1-1l-0.8-0.7
		c-0.3-0.3-0.7-0.3-1-0.1l-1.4,1.1c-0.7-0.4-1.5-0.7-2.3-0.8l-0.5-1.8c-0.1-0.4-0.4-0.6-0.8-0.6l-1.1,0.1c-0.4,0-0.7,0.3-0.7,0.7
		l-0.1,1.8c-0.7,0.2-1.3,0.5-1.8,1l-1.5-0.9c-0.3-0.2-0.8-0.1-1,0.2l-0.7,0.8c-0.2,0.3-0.2,0.7,0,1l1.2,1.4
		c-0.3,0.6-0.5,1.3-0.6,1.9L6.5,34c-0.4,0.1-0.6,0.4-0.6,0.8L6,35.9c0,0.4,0.3,0.7,0.7,0.7l1.8,0.1c0.2,0.5,0.4,1.1,0.7,1.5l-1,1.5
		c-0.2,0.3-0.2,0.8,0.1,1l0.8,0.7c0.3,0.3,0.7,0.3,1,0.1l1.5-1.1c0.7,0.4,1.5,0.7,2.3,0.8l0.5,1.8c0.1,0.4,0.4,0.6,0.8,0.6l1.1-0.1
		c0.4,0,0.7-0.3,0.7-0.7l0.1-1.8c0.7-0.2,1.3-0.5,1.8-0.9l1.6,0.9c0.3,0.2,0.8,0.1,1-0.2l0.7-0.8c0.2-0.3,0.2-0.7,0-1L21,37.5
		c0.3-0.6,0.5-1.3,0.6-2l1.8-0.5c0.4-0.1,0.6-0.4,0.6-0.8l-0.1-1.1C23.9,32.8,23.5,32.5,23.2,32.5 M15.2,37.9
		c-1.9,0.2-3.5-1.2-3.7-3.1c-0.2-1.9,1.2-3.5,3.1-3.7c1.9-0.2,3.5,1.2,3.7,3.1C18.5,36.1,17.1,37.8,15.2,37.9"/>
</g>
</svg>
