
<svg version="1.1" xmlns="http://www.w3.org/2000/svg" xmlns:xlink="http://www.w3.org/1999/xlink" x="0px" y="0px"
	 viewBox="0 0 45 45" style="enable-background:new 0 0 45 45;" xml:space="preserve">
<g id="imagination">
	<g>
		<path style="fill:#FFFFFF;" d="M22.8,37.8c-0.2-0.4-0.6-0.5-0.9-0.4c-0.4,0.2-0.5,0.6-0.4,0.9L23,42c0.1,0.2,0.2,0.3,0.4,0.4
			c0.2,0.1,0.4,0.1,0.5,0c0.4-0.1,0.5-0.6,0.4-0.9L22.8,37.8z"/>
		<path style="fill:#FFFFFF;" d="M16.9,35.4C16.7,35,16.3,34.9,16,35l-3.6,1.5c-0.4,0.1-0.5,0.6-0.4,0.9c0.1,0.2,0.2,0.3,0.4,0.4
			c0.2,0.1,0.4,0.1,0.5,0l3.6-1.5C16.9,36.2,17,35.7,16.9,35.4"/>
		<path style="fill:#FFFFFF;" d="M19.2,37c-0.4-0.1-0.8,0-0.9,0.4l-1.8,4.3c-0.1,0.4,0,0.8,0.4,0.9c0.4,0.1,0.8,0,0.9-0.4l1.8-4.3
			C19.7,37.5,19.6,37.1,19.2,37"/>
		<path style="fill:#FFFFFF;" d="M16.8,26.4c-0.1-3.2,0.8-7.1,1.6-9.1l-0.7,0.1c-0.5,0.1-1,0.5-1.2,1l-3.7,8.1
			c-0.2,0.4-0.1,0.7,0.4,0.6L16.8,26.4z"/>
		<path style="fill:#FFFFFF;" d="M32.7,8.6c-0.4-1.5-1.2-4.1-1.5-5.2c-0.9,0.6-3.2,2.2-4.4,3.1c0.8,0.5,1.8,1,2.8,1.4
			C30.7,8.3,31.7,8.5,32.7,8.6"/>
		<path style="fill:#FFFFFF;" d="M32.7,22.3c-0.6,2-2.3,5.7-4.4,8.1l2.3,2.8c0.3,0.4,0.6,0.3,0.7-0.2l2.2-8.7c0.1-0.5,0-1.1-0.3-1.5
			L32.7,22.3z"/>
		<path style="fill:#FFFFFF;" d="M28.4,28.2c3.4-4.1,4.3-11.1,4.6-15.1c0.1-1.2,0.1-2.4,0-3.2c-1.2-0.1-2.6-0.4-3.8-0.8
			c-1.3-0.5-2.4-1-3.4-1.7c-0.6,0.6-1.2,1.5-1.9,2.5c-2.3,3.3-6,9.4-5.9,14.7L28.4,28.2z M24.7,13.5c0.5-1.5,2.1-2.3,3.7-1.9
			c1.7,0.7,2.2,2.2,1.7,3.7c-0.5,1.5-1.9,2.4-3.7,1.9C24.9,16.6,24.2,15,24.7,13.5"/>
		<path style="opacity:0.2;fill:#E76647;" d="M13.6,27c-0.1-0.1-0.2-0.3,0-0.6l3.7-8.2c0.2-0.4,0.6-0.9,1.1-0.9c0,0,0-0.1,0-0.1
			l-0.7,0.1c-0.5,0.1-1,0.5-1.2,1l-3.7,8.1c-0.2,0.4-0.1,0.7,0.4,0.6L13.6,27z"/>
		<path style="opacity:0.2;fill:#E76647;" d="M28.4,28.2c0.1-0.1,0.1-0.2,0.2-0.2l-9.8-3.4c-0.1-5.3,3.5-11.3,5.9-14.7
			c0.6-0.9,1.1-1.6,1.6-2.2c-0.1-0.1-0.3-0.2-0.5-0.3c-0.6,0.6-1.2,1.5-1.9,2.5c-2.3,3.3-6,9.4-5.9,14.7L28.4,28.2z"/>
		<path style="fill:#FFFFFF;" d="M23.2,32.4c1.6-0.6,3-1.7,4.2-3.2l-9.3-3.3c0,1.9,0.4,3.6,1.3,5.1l-3.3,2l8.4,2.9l-1.4-3.5
			C23.1,32.4,23.2,32.4,23.2,32.4"/>
		<g style="opacity:0.2;">
			<g>
				<defs>
					<rect id="SVGID_3_" x="16.1" y="25.9" width="4" height="7.3"/>
				</defs>
				<clipPath id="SVGID_4_">
					<use xlink:href="#SVGID_3_"  style="overflow:visible;"/>
				</clipPath>
				<path style="clip-path:url(#SVGID_4_);fill:#E76647;" d="M18.9,26.2l-0.7-0.2c0,1.9,0.4,3.6,1.3,5.1l-3.3,2l0.7,0.2l3.3-2
					C19.3,29.8,18.9,28.1,18.9,26.2"/>
			</g>
		</g>
	</g>
</g>
</svg>
