<svg version="1.1" xmlns="http://www.w3.org/2000/svg" xmlns:xlink="http://www.w3.org/1999/xlink" x="0px" y="0px"
	 viewBox="0 0 45 45" style="enable-background:new 0 0 45 45;" xml:space="preserve">
<g id="language">
	<g>
		<path style="fill:#FFFFFF;" d="M19.4,37.3c-2.6-1.2-6.5-2.5-12.5-2l-1.8,0.2V15.6h-3v21.7h15.4H19.4z"/>
		<path style="fill:#FFFFFF;" d="M26.2,37.3c2.6-1.2,6.5-2.5,12.6-2l1.9,0.2V15.6h3v21.7H28H26.2z"/>
		<path style="fill:#FFFFFF;" d="M7.1,9.9v0.6v3.9v18.4c6.9-0.6,11.7,2.1,13.9,3.2l0.9,0.8V13.9C18.9,12.5,14,9.1,7.1,9.9"/>
		<path style="fill:#FFFFFF;" d="M23.8,14v22.7l0.8-0.8c2.2-1.1,7.1-3.7,14-3.2V14.3v-3.9V9.9C31.7,9.1,26.8,12.5,23.8,14"/>
		<g style="opacity:0.2;">
			<g>
				<defs>
					<rect id="SVGID_1_" x="2" y="15.2" width="17.4" height="22.1"/>
				</defs>
				<clipPath id="SVGID_2_">
					<use xlink:href="#SVGID_1_"  style="overflow:visible;"/>
				</clipPath>
				<path style="clip-path:url(#SVGID_2_);fill:#E76647;" d="M3.8,36V15.2H2v22.1h15.5h1.9c-0.9-0.4-2-0.9-3.3-1.2H3.8z"/>
			</g>
		</g>
	</g>
</g>
</svg>
