<svg version="1.1" xmlns="http://www.w3.org/2000/svg" xmlns:xlink="http://www.w3.org/1999/xlink" x="0px" y="0px"
	 viewBox="0 0 45 45" style="enable-background:new 0 0 45 45;" xml:space="preserve">
<g id="motor-skills">
	<g>
		<path style="fill:#FFFFFF;" d="M17.5,21.2c-0.1,0-0.2,0-0.2,0.1l-9.1,15c0,0.1,0,0.1,0,0.2C9,37.9,10.7,39,12.5,39c0,0,0,0,0,0
			c0.1,0,0.1,0,0.1-0.1l9.1-15c0,0,0-0.1,0-0.1c0,0,0-0.1-0.1-0.1L17.5,21.2z"/>
		<path style="fill:#FFFFFF;" d="M33.7,14.6c0-0.1,0-0.1,0-0.2c0-0.1-0.1-0.1-0.2-0.1c0,0-0.2,0-0.5,0c-1.2,0-3.3-0.4-4.8-3.3
			c0,0,0,0-0.1-0.1c-0.1-0.1-0.3-0.2-0.4-0.3c-0.2-0.1-0.5-0.3-0.8-0.5c-3.4-2-6.7-3-9.9-3c-1.7,0-3.3,0.3-4.9,0.8
			c-0.2,0.1-0.7,0.3-1.1,0.4c-0.5,0.2-0.6,0.6-0.5,1c0.1,0.4,0.4,0.6,0.7,0.6c0.1,0,0.1,0,0.2,0c0.4-0.1,0.8-0.2,1-0.2l0.2,0
			c0.5-0.1,1.1-0.1,1.6-0.1c0.2,0,0.4,0,0.6,0c2.1,0.3,3.9,1.4,4.6,2.9c0.6,1.2,0.5,2.4-0.3,3.7c-0.6,0.9-1.7,2.7-1.7,2.7
			c0,0,0,0.1,0,0.1c0,0,0,0.1,0.1,0.1l5.5,3.2c0,0,0.1,0,0.1,0c0,0,0,0,0,0c0,0,0.1,0,0.1-0.1c0,0,0.2-0.4,0.4-0.7
			c0.6-0.9,2-2.3,3.7-2.3c0.1,0,0.3,0,0.4,0c0.3,0,0.5,0.1,0.7,0.3l0.1,0.1c0.1,0.1,0.2,0.1,0.2,0.2c0,0,0,0,0.1,0.1
			c0,0,0,0.1,0.1,0.1c0.1,0.1,0.1,0.2,0.2,0.3c0,0.1,0.1,0.1,0.1,0.2l0,0c0.1,0.1,0.1,0.3,0.2,0.4c0,0.1,0.1,0.1,0.1,0.1
			c0.1,0,0.1,0,0.2-0.1c0.7-1.2,1.5-2.5,2.2-3.7C32.5,16.6,33.1,15.6,33.7,14.6"/>
		<path style="fill:#FFFFFF;" d="M36.4,15.4l-1.2-0.7c-0.1,0-0.2,0-0.2,0.1l-4.6,7.8c0,0.1,0,0.2,0.1,0.2l1.2,0.7
			c0.2,0.1,0.5,0.2,0.7,0.2c0.5,0,0.9-0.3,1.2-0.7l3.4-5.7C37.3,16.6,37.1,15.8,36.4,15.4"/>
		<g style="opacity:0.2;">
			<g>
				<defs>
					<rect id="SVGID_5_" x="8.2" y="8.4" width="13.6" height="30.5"/>
				</defs>
				<clipPath id="SVGID_6_">
					<use xlink:href="#SVGID_5_"  style="overflow:visible;"/>
				</clipPath>
				<path style="clip-path:url(#SVGID_6_);fill:#E76647;" d="M11.1,10c0.1,0,0.1,0,0.2,0c0.4-0.1,0.8-0.2,1-0.2l0.2,0
					c0.5-0.1,1.1-0.1,1.6-0.1c0.2,0,0.4,0,0.6,0c2.1,0.3,3.9,1.4,4.6,2.9c0.4,0.8,0.5,1.8,0.2,2.7c0.1-0.1,0.1-0.2,0.2-0.3
					c0.8-1.3,0.9-2.5,0.3-3.7c-0.7-1.5-2.6-2.7-4.6-2.9c-0.2,0-0.4,0-0.6,0c-0.5,0-1,0.1-1.6,0.1l-0.2,0c-0.2,0-0.6,0.1-1,0.2
					c-0.1,0-0.2,0-0.2,0c-0.3,0-0.5-0.1-0.6-0.4c-0.1,0-0.1,0.1-0.2,0.1c-0.5,0.2-0.6,0.6-0.5,1C10.5,9.8,10.7,10,11.1,10"/>
				<path style="clip-path:url(#SVGID_6_);fill:#E76647;" d="M13.3,37.5c0,0-0.1,0.1-0.1,0.1h0c-1.7-0.1-3.4-1.1-4.3-2.6l-0.7,1.1
					c0,0,0,0.1,0,0.2c0.8,1.5,2.6,2.5,4.3,2.6c0,0,0,0,0,0c0.1,0,0.1,0,0.1-0.1l9.1-15c0,0,0-0.1,0-0.1c0,0,0,0,0-0.1L13.3,37.5z"/>
			</g>
		</g>
	</g>
</g>
</svg>
