<svg version="1.1" xmlns="http://www.w3.org/2000/svg" xmlns:xlink="http://www.w3.org/1999/xlink" x="0px" y="0px"
	 viewBox="0 0 45 45" style="enable-background:new 0 0 45 45;" xml:space="preserve">
<g id="play">
	<g>
		<path style="fill:#FFFFFF;" d="M44.9,10.3l-4.3-2.1c0,0-0.1,0-0.1,0c0,0-0.1,0-0.1,0.1L39.6,10c0,0.1,0,0.2,0.1,0.2l1.1,0.5
			l-5,11.8H2c-0.7,0-1.2,0.5-1.2,1.2v1.1C0.8,25.5,1.4,26,2,26h0.6v9.3c0,0.7,0.5,1.2,1.2,1.2h3.8c0,0,0.1,0,0.1,0c0,0,0-0.1,0-0.1
			c0-0.2,0-0.4,0-0.6c0-2.2,1.8-4,4-4c2.2,0,4,1.8,4,4c0,0.2,0,0.4,0,0.6c0,0,0,0.1,0,0.1c0,0,0.1,0,0.1,0h11.2c0,0,0.1,0,0.1,0
			c0,0,0-0.1,0-0.1c0-0.2,0-0.4,0-0.6c0-2.2,1.8-4,4-4s4,1.8,4,4c0,0.2,0,0.4,0,0.6c0,0,0,0.1,0,0.1c0,0,0.1,0,0.1,0h3.8
			c0.7,0,1.2-0.5,1.2-1.2V26h0.6c0.7,0,1.2-0.5,1.2-1.2v-1.1c0-0.7-0.5-1.2-1.2-1.2h-2.7l4.6-10.9l1.2,0.6c0,0,0.1,0,0.1,0
			c0,0,0.1,0,0.1-0.1l0.8-1.7C45,10.4,45,10.3,44.9,10.3z"/>
		<g>
			<circle style="fill:#FFFFFF;" cx="11.6" cy="35.9" r="2.2"/>
			<path style="opacity:0.2;fill:#FFB547;" d="M9.9,35.9c0-1.1,0.9-2.1,2-2.2c-0.1,0-0.1,0-0.2,0c-1.2,0-2.2,1-2.2,2.2
				c0,1.2,1,2.2,2.2,2.2c0.1,0,0.2,0,0.2,0C10.7,37.9,9.9,37,9.9,35.9z"/>
		</g>
		<path style="opacity:0.2;fill:#FFB547;" d="M35.9,25H3.4c-0.1,0-0.2,0-0.2,0.1c-0.4-0.2-0.8-0.6-0.8-1.1v-1.1c0-0.1,0-0.3,0.1-0.4
			H2c-0.7,0-1.2,0.5-1.2,1.2v1.1C0.8,25.5,1.4,26,2,26h0.6v9.3c0,0.7,0.5,1.2,1.2,1.2h3.8c0,0,0.1,0,0.1,0c0,0,0-0.1,0-0.1
			c0-0.2,0-0.4,0-0.6c0,0,0,0,0-0.1H5.3c-0.7,0-1.2-0.5-1.2-1.2v-8.7h31.8c0.2,0,0.4-0.2,0.4-0.4C36.3,25.2,36.1,25,35.9,25z"/>
		<g>
			<circle style="fill:#FFFFFF;" cx="31.2" cy="35.9" r="2.2"/>
			<path style="opacity:0.2;fill:#FFB547;" d="M29.4,35.9c0-1.1,0.9-2.1,2-2.2c-0.1,0-0.1,0-0.2,0c-1.2,0-2.2,1-2.2,2.2
				c0,1.2,1,2.2,2.2,2.2c0.1,0,0.2,0,0.2,0C30.3,37.9,29.4,37,29.4,35.9z"/>
		</g>
	</g>
</g>
</svg>
