<svg version="1.1" xmlns="http://www.w3.org/2000/svg" xmlns:xlink="http://www.w3.org/1999/xlink" x="0px" y="0px"
	 viewBox="0 0 45 45" style="enable-background:new 0 0 45 45;" xml:space="preserve">
<g id="social">
	<path style="fill-rule:evenodd;clip-rule:evenodd;fill:#FFFFFF;" d="M22.7,37.4c-4-4-8-7.8-11.8-11.8c-1.7-1.8-2.8-4-3.2-6.6
		c-0.5-3.5,1.3-7.1,4.6-8.7c2.9-1.5,6.5-0.7,9,1.8c0.5,0.5,0.9,1.1,1.4,1.7c0.7-0.8,1.4-1.6,2.2-2.3c2.5-2.2,5.9-2.6,8.7-1
		c3,1.7,4.6,5.1,4.2,8.4c-0.4,3.1-2,5.6-4.1,7.7C30.2,30.2,26.5,33.7,22.7,37.4"/>
</g>
</svg>
