<svg version="1.1" id="ball-bounce-svg" xmlns="http://www.w3.org/2000/svg" xmlns:xlink="http://www.w3.org/1999/xlink" x="0px" y="0px"
	 viewBox="0 0 618.6 30.2" style="enable-background:new 0 0 618.6 30.2;" xml:space="preserve">
<g>
	<g>
		<path style="fill:#43B7BA;" d="M99.7,28.6c-0.4,0.2-0.8,0.2-1.1-0.2c-0.2-0.4-0.1-0.8,0.3-1c0.4-0.2,0.8-0.2,1.1,0.2
			C100.2,28,100.1,28.4,99.7,28.6z"/>
		<path style="fill:#43B7BA;" d="M97.1,24.7C96.8,25,96.3,25,96,24.6c-0.3-0.4-0.2-0.8,0.2-1.1c0.4-0.3,0.8-0.2,1.1,0.1
			C97.6,24,97.5,24.5,97.1,24.7z"/>
		<path style="fill:#43B7BA;" d="M94.2,21.1c-0.3,0.3-0.8,0.3-1.1,0c-0.3-0.3-0.2-0.8,0.1-1.1c0.3-0.3,0.8-0.3,1.1,0.1
			C94.6,20.3,94.6,20.8,94.2,21.1z"/>
		<path style="fill:#43B7BA;" d="M91,17.6c-0.3,0.3-0.8,0.3-1.1,0c-0.3-0.3-0.3-0.7,0-1.1c0.3-0.3,0.8-0.4,1.1,0
			C91.3,16.8,91.3,17.3,91,17.6z"/>
		<path style="fill:#43B7BA;" d="M87.6,14.4c-0.3,0.3-0.7,0.4-1.1,0.1c-0.3-0.3-0.4-0.7-0.1-1.1c0.3-0.3,0.7-0.4,1.1-0.1
			C87.8,13.6,87.8,14.1,87.6,14.4z"/>
		<path style="fill:#43B7BA;" d="M83.9,11.6c-0.3,0.4-0.7,0.5-1.1,0.2c-0.4-0.3-0.4-0.7-0.2-1.1c0.3-0.4,0.7-0.5,1.1-0.2
			C84.1,10.7,84.1,11.2,83.9,11.6z"/>
		<path style="fill:#43B7BA;" d="M79.9,9c-0.2,0.4-0.7,0.5-1,0.3c-0.4-0.2-0.5-0.7-0.2-1.1c0.2-0.4,0.7-0.5,1.1-0.3
			C80,8.1,80.1,8.6,79.9,9z"/>
		<path style="fill:#43B7BA;" d="M75.8,6.7c-0.2,0.4-0.6,0.6-1,0.4c-0.4-0.2-0.5-0.6-0.3-1c0.2-0.4,0.6-0.6,1-0.4
			C75.9,5.9,76,6.3,75.8,6.7z"/>
		<path style="fill:#43B7BA;" d="M71.5,4.8c-0.2,0.4-0.6,0.6-1,0.5c-0.4-0.2-0.6-0.6-0.4-1c0.2-0.4,0.6-0.6,1-0.5
			C71.5,4,71.6,4.4,71.5,4.8z"/>
		<path style="fill:#43B7BA;" d="M67,3.3c-0.1,0.4-0.5,0.7-0.9,0.5c-0.4-0.1-0.6-0.5-0.5-1c0.1-0.4,0.5-0.7,1-0.5
			C67,2.4,67.2,2.8,67,3.3z"/>
		<path style="fill:#43B7BA;" d="M62.5,2.1c-0.1,0.4-0.5,0.7-0.9,0.6C61.2,2.6,61,2.2,61,1.8c0.1-0.4,0.5-0.7,0.9-0.6
			C62.4,1.2,62.6,1.6,62.5,2.1z"/>
		<path style="fill:#43B7BA;" d="M57.9,1.3C57.8,1.7,57.5,2,57,2c-0.4-0.1-0.7-0.4-0.6-0.9c0.1-0.4,0.4-0.7,0.9-0.7
			C57.7,0.4,57.9,0.8,57.9,1.3z"/>
		<path style="fill:#43B7BA;" d="M53.2,0.8c0,0.4-0.3,0.8-0.8,0.8c-0.4,0-0.7-0.4-0.7-0.8C51.7,0.3,52,0,52.5,0
			C52.9,0,53.2,0.4,53.2,0.8z"/>
		<path style="fill:#43B7BA;" d="M48.5,0.8c0,0.5-0.3,0.8-0.7,0.8c-0.4,0-0.7-0.3-0.8-0.8C47,0.4,47.3,0,47.8,0
			C48.2,0,48.5,0.3,48.5,0.8z"/>
		<path style="fill:#43B7BA;" d="M43.8,1.1c0.1,0.4-0.2,0.8-0.7,0.9c-0.4,0.1-0.8-0.2-0.8-0.7c-0.1-0.4,0.2-0.8,0.7-0.9
			C43.4,0.3,43.8,0.6,43.8,1.1z"/>
		<path style="fill:#43B7BA;" d="M39.2,1.7c0.1,0.4-0.2,0.8-0.6,0.9c-0.4,0.1-0.8-0.2-0.9-0.6c-0.1-0.4,0.1-0.8,0.6-0.9
			C38.7,1,39.1,1.3,39.2,1.7z"/>
		<path style="fill:#43B7BA;" d="M34.6,2.8c0.1,0.4-0.1,0.8-0.5,1c-0.4,0.1-0.8-0.1-0.9-0.6c-0.1-0.4,0.1-0.8,0.5-1
			C34.1,2.1,34.5,2.4,34.6,2.8z"/>
		<path style="fill:#43B7BA;" d="M30.1,4.2c0.2,0.4,0,0.8-0.4,1c-0.4,0.2-0.8,0-1-0.5c-0.2-0.4,0-0.8,0.4-1
			C29.6,3.6,30,3.8,30.1,4.2z"/>
		<path style="fill:#43B7BA;" d="M25.7,6c0.2,0.4,0.1,0.8-0.3,1c-0.4,0.2-0.8,0-1-0.4c-0.2-0.4-0.1-0.8,0.4-1
			C25.1,5.4,25.5,5.6,25.7,6z"/>
		<path style="fill:#43B7BA;" d="M21.6,8.1c0.2,0.4,0.1,0.8-0.3,1.1c-0.4,0.2-0.8,0.1-1-0.3C20,8.5,20.1,8,20.5,7.8
			C20.9,7.6,21.3,7.7,21.6,8.1z"/>
		<path style="fill:#43B7BA;" d="M17.5,10.6c0.3,0.4,0.2,0.8-0.2,1.1c-0.4,0.2-0.8,0.1-1.1-0.2c-0.3-0.4-0.2-0.8,0.2-1.1
			C16.9,10.1,17.3,10.2,17.5,10.6z"/>
		<path style="fill:#43B7BA;" d="M13.8,13.4c0.3,0.3,0.3,0.8-0.1,1.1c-0.3,0.3-0.8,0.2-1.1-0.1c-0.3-0.3-0.3-0.8,0.1-1.1
			C13,12.9,13.5,13,13.8,13.4z"/>
		<path style="fill:#43B7BA;" d="M10.2,16.4c0.3,0.3,0.3,0.8,0,1.1c-0.3,0.3-0.8,0.3-1.1-0.1c-0.3-0.3-0.3-0.8,0-1.1
			C9.4,16.1,9.9,16.1,10.2,16.4z"/>
		<path style="fill:#43B7BA;" d="M6.9,19.8c0.3,0.3,0.4,0.8,0.1,1.1c-0.3,0.3-0.7,0.3-1.1,0c-0.3-0.3-0.4-0.7-0.1-1.1
			C6.1,19.5,6.6,19.5,6.9,19.8z"/>
		<path style="fill:#43B7BA;" d="M3.9,23.4c0.4,0.3,0.4,0.7,0.2,1.1c-0.3,0.3-0.7,0.4-1.1,0.1c-0.4-0.3-0.4-0.7-0.2-1.1
			C3.1,23.2,3.5,23.1,3.9,23.4z"/>
		<path style="fill:#43B7BA;" d="M1.2,27.2c0.4,0.2,0.5,0.7,0.3,1.1c-0.2,0.4-0.7,0.4-1.1,0.2c-0.4-0.2-0.5-0.7-0.3-1.1
			C0.4,27.1,0.8,27,1.2,27.2z"/>
	</g>
	<g>
		<path style="fill:#43B7BA;" d="M197.9,28.7c-0.4,0.2-0.8,0.2-1.1-0.2c-0.2-0.4-0.1-0.8,0.3-1c0.4-0.2,0.8-0.2,1.1,0.2
			C198.4,28,198.3,28.5,197.9,28.7z"/>
		<path style="fill:#43B7BA;" d="M195.3,24.8c-0.4,0.3-0.8,0.2-1.1-0.1c-0.3-0.3-0.2-0.8,0.2-1.1c0.4-0.3,0.8-0.2,1.1,0.1
			C195.8,24.1,195.7,24.6,195.3,24.8z"/>
		<path style="fill:#43B7BA;" d="M192.4,21.1c-0.3,0.3-0.8,0.3-1.1,0c-0.3-0.3-0.2-0.8,0.1-1.1c0.3-0.3,0.8-0.3,1.1,0.1
			C192.8,20.4,192.7,20.8,192.4,21.1z"/>
		<path style="fill:#43B7BA;" d="M189.2,17.7c-0.3,0.3-0.8,0.3-1.1,0c-0.3-0.3-0.3-0.7,0-1.1c0.3-0.3,0.8-0.4,1.1,0
			C189.5,16.9,189.5,17.4,189.2,17.7z"/>
		<path style="fill:#43B7BA;" d="M185.7,14.5c-0.3,0.3-0.7,0.4-1.1,0.1c-0.3-0.3-0.4-0.7-0.1-1.1c0.3-0.3,0.7-0.4,1.1-0.1
			C186,13.7,186,14.2,185.7,14.5z"/>
		<path style="fill:#43B7BA;" d="M182,11.6c-0.3,0.4-0.7,0.5-1.1,0.2c-0.4-0.2-0.4-0.7-0.2-1.1c0.3-0.4,0.7-0.5,1.1-0.2
			C182.2,10.8,182.3,11.3,182,11.6z"/>
		<path style="fill:#43B7BA;" d="M178.1,9c-0.2,0.4-0.7,0.5-1,0.3c-0.4-0.2-0.5-0.7-0.2-1c0.2-0.4,0.7-0.5,1.1-0.3
			C178.2,8.2,178.3,8.7,178.1,9z"/>
		<path style="fill:#43B7BA;" d="M174,6.8c-0.2,0.4-0.6,0.6-1,0.4c-0.4-0.2-0.5-0.6-0.3-1c0.2-0.4,0.6-0.6,1-0.4
			C174,6,174.2,6.4,174,6.8z"/>
		<path style="fill:#43B7BA;" d="M169.7,4.9c-0.2,0.4-0.6,0.6-1,0.5c-0.4-0.2-0.6-0.6-0.4-1c0.2-0.4,0.6-0.6,1-0.5
			C169.7,4.1,169.8,4.5,169.7,4.9z"/>
		<path style="fill:#43B7BA;" d="M165.2,3.3c-0.1,0.4-0.5,0.7-0.9,0.5c-0.4-0.1-0.6-0.5-0.5-1c0.1-0.4,0.5-0.7,1-0.5
			C165.2,2.5,165.4,2.9,165.2,3.3z"/>
		<path style="fill:#43B7BA;" d="M160.7,2.2c-0.1,0.4-0.5,0.7-0.9,0.6c-0.4-0.1-0.7-0.5-0.6-0.9c0.1-0.4,0.5-0.7,0.9-0.6
			C160.5,1.3,160.8,1.7,160.7,2.2z"/>
		<path style="fill:#43B7BA;" d="M156,1.3c-0.1,0.4-0.4,0.7-0.8,0.7c-0.4-0.1-0.7-0.4-0.6-0.9c0.1-0.4,0.4-0.7,0.9-0.7
			C155.8,0.5,156.1,0.9,156,1.3z"/>
		<path style="fill:#43B7BA;" d="M151.4,0.9c0,0.4-0.3,0.8-0.8,0.8c-0.4,0-0.7-0.4-0.7-0.8c0-0.4,0.3-0.8,0.8-0.8
			C151.1,0.1,151.4,0.5,151.4,0.9z"/>
		<path style="fill:#43B7BA;" d="M146.7,0.8c0,0.4-0.3,0.8-0.7,0.8c-0.4,0-0.7-0.3-0.8-0.8c0-0.4,0.3-0.8,0.7-0.8
			C146.4,0.1,146.7,0.4,146.7,0.8z"/>
		<path style="fill:#43B7BA;" d="M142,1.1c0.1,0.4-0.2,0.8-0.7,0.9c-0.4,0.1-0.8-0.2-0.8-0.7c-0.1-0.4,0.2-0.8,0.7-0.9
			C141.6,0.4,141.9,0.7,142,1.1z"/>
		<path style="fill:#43B7BA;" d="M137.3,1.8c0.1,0.4-0.2,0.8-0.6,0.9c-0.4,0.1-0.8-0.2-0.9-0.6c-0.1-0.4,0.1-0.8,0.6-0.9
			C136.9,1.1,137.3,1.4,137.3,1.8z"/>
		<path style="fill:#43B7BA;" d="M132.8,2.9c0.1,0.4-0.1,0.8-0.5,1c-0.4,0.1-0.8-0.1-0.9-0.6c-0.1-0.4,0.1-0.8,0.5-1
			C132.3,2.2,132.7,2.4,132.8,2.9z"/>
		<path style="fill:#43B7BA;" d="M128.3,4.3c0.2,0.4,0,0.8-0.4,1c-0.4,0.2-0.8,0-1-0.5c-0.2-0.4,0-0.8,0.4-1
			C127.7,3.7,128.1,3.9,128.3,4.3z"/>
		<path style="fill:#43B7BA;" d="M123.9,6.1c0.2,0.4,0.1,0.8-0.3,1c-0.4,0.2-0.8,0-1-0.4c-0.2-0.4-0.1-0.8,0.4-1
			C123.3,5.5,123.7,5.7,123.9,6.1z"/>
		<path style="fill:#43B7BA;" d="M119.7,8.2c0.2,0.4,0.1,0.8-0.3,1.1c-0.4,0.2-0.8,0.1-1-0.3c-0.2-0.4-0.1-0.8,0.3-1.1
			C119.1,7.7,119.5,7.8,119.7,8.2z"/>
		<path style="fill:#43B7BA;" d="M115.7,10.7c0.3,0.4,0.2,0.8-0.2,1.1c-0.4,0.2-0.8,0.1-1.1-0.2c-0.3-0.4-0.2-0.8,0.2-1.1
			C115,10.2,115.5,10.3,115.7,10.7z"/>
		<path style="fill:#43B7BA;" d="M111.9,13.4c0.3,0.3,0.3,0.8-0.1,1.1c-0.3,0.3-0.8,0.2-1.1-0.1c-0.3-0.3-0.3-0.8,0.1-1.1
			C111.2,13,111.7,13.1,111.9,13.4z"/>
		<path style="fill:#43B7BA;" d="M108.4,16.5c0.3,0.3,0.3,0.8,0,1.1c-0.3,0.3-0.8,0.3-1.1-0.1c-0.3-0.3-0.3-0.8,0-1.1
			C107.6,16.2,108.1,16.2,108.4,16.5z"/>
		<path style="fill:#43B7BA;" d="M105.1,19.9c0.3,0.3,0.4,0.8,0.1,1.1c-0.3,0.3-0.7,0.3-1.1,0c-0.3-0.3-0.4-0.7-0.1-1.1
			C104.3,19.6,104.7,19.6,105.1,19.9z"/>
		<path style="fill:#43B7BA;" d="M102.1,23.5c0.4,0.3,0.4,0.7,0.2,1.1c-0.3,0.3-0.7,0.4-1.1,0.1c-0.4-0.3-0.4-0.7-0.2-1.1
			C101.3,23.2,101.7,23.2,102.1,23.5z"/>
	</g>
	<g>
		<path style="fill:#43B7BA;" d="M296.4,28.8c-0.4,0.2-0.8,0.2-1.1-0.2c-0.2-0.4-0.1-0.8,0.3-1c0.4-0.2,0.8-0.2,1.1,0.2
			C297,28.1,296.8,28.6,296.4,28.8z"/>
		<path style="fill:#43B7BA;" d="M293.9,24.9c-0.4,0.3-0.8,0.2-1.1-0.1c-0.3-0.4-0.2-0.8,0.2-1.1c0.4-0.3,0.8-0.2,1.1,0.1
			C294.3,24.2,294.2,24.6,293.9,24.9z"/>
		<path style="fill:#43B7BA;" d="M290.9,21.2c-0.3,0.3-0.8,0.3-1.1,0c-0.3-0.3-0.2-0.8,0.1-1.1c0.3-0.3,0.8-0.3,1.1,0.1
			C291.3,20.5,291.3,20.9,290.9,21.2z"/>
		<path style="fill:#43B7BA;" d="M287.7,17.8c-0.3,0.3-0.8,0.3-1.1,0c-0.3-0.3-0.3-0.7,0-1.1c0.3-0.3,0.8-0.4,1.1,0
			C288.1,17,288,17.4,287.7,17.8z"/>
		<path style="fill:#43B7BA;" d="M284.3,14.6c-0.3,0.3-0.7,0.4-1.1,0.1c-0.3-0.3-0.4-0.7-0.1-1.1c0.3-0.3,0.7-0.4,1.1-0.1
			C284.6,13.8,284.6,14.2,284.3,14.6z"/>
		<path style="fill:#43B7BA;" d="M280.6,11.7c-0.3,0.4-0.7,0.5-1.1,0.2c-0.4-0.2-0.4-0.7-0.2-1.1c0.3-0.4,0.7-0.5,1.1-0.2
			C280.8,10.9,280.8,11.3,280.6,11.7z"/>
		<path style="fill:#43B7BA;" d="M276.6,9.1c-0.2,0.4-0.7,0.5-1,0.3c-0.4-0.2-0.5-0.7-0.2-1.1c0.2-0.4,0.7-0.5,1.1-0.3
			C276.8,8.3,276.9,8.7,276.6,9.1z"/>
		<path style="fill:#43B7BA;" d="M272.5,6.9c-0.2,0.4-0.6,0.6-1,0.4c-0.4-0.2-0.5-0.6-0.3-1c0.2-0.4,0.6-0.6,1-0.4
			C272.6,6,272.7,6.5,272.5,6.9z"/>
		<path style="fill:#43B7BA;" d="M268.2,5c-0.2,0.4-0.6,0.6-1,0.5c-0.4-0.2-0.6-0.6-0.4-1c0.2-0.4,0.6-0.6,1-0.5
			C268.2,4.1,268.4,4.6,268.2,5z"/>
		<path style="fill:#43B7BA;" d="M263.8,3.4c-0.1,0.4-0.5,0.7-0.9,0.5c-0.4-0.1-0.6-0.5-0.5-1c0.1-0.4,0.5-0.7,1-0.5
			C263.7,2.6,263.9,3,263.8,3.4z"/>
		<path style="fill:#43B7BA;" d="M259.2,2.2c-0.1,0.4-0.5,0.7-0.9,0.6c-0.4-0.1-0.7-0.5-0.6-0.9c0.1-0.4,0.5-0.7,0.9-0.6
			C259.1,1.4,259.3,1.8,259.2,2.2z"/>
		<path style="fill:#43B7BA;" d="M254.6,1.4c-0.1,0.4-0.4,0.7-0.8,0.7c-0.4-0.1-0.7-0.4-0.6-0.9c0.1-0.4,0.4-0.7,0.9-0.7
			C254.4,0.6,254.7,1,254.6,1.4z"/>
		<path style="fill:#43B7BA;" d="M249.9,1c0,0.4-0.3,0.8-0.8,0.8c-0.4,0-0.7-0.4-0.7-0.8c0-0.5,0.3-0.8,0.8-0.8
			C249.7,0.2,249.9,0.5,249.9,1z"/>
		<path style="fill:#43B7BA;" d="M245.2,0.9c0,0.4-0.3,0.8-0.7,0.8c-0.4,0-0.7-0.3-0.8-0.8c0-0.5,0.3-0.8,0.7-0.8
			C244.9,0.1,245.2,0.5,245.2,0.9z"/>
		<path style="fill:#43B7BA;" d="M240.5,1.2c0.1,0.4-0.2,0.8-0.7,0.9c-0.4,0.1-0.8-0.2-0.8-0.7c-0.1-0.4,0.2-0.8,0.7-0.9
			C240.2,0.5,240.5,0.8,240.5,1.2z"/>
		<path style="fill:#43B7BA;" d="M235.9,1.9c0.1,0.4-0.2,0.8-0.6,0.9c-0.4,0.1-0.8-0.2-0.9-0.6c-0.1-0.4,0.1-0.8,0.6-0.9
			C235.5,1.2,235.8,1.5,235.9,1.9z"/>
		<path style="fill:#43B7BA;" d="M231.3,3c0.1,0.4-0.1,0.8-0.5,1c-0.4,0.1-0.8-0.1-0.9-0.6c-0.1-0.4,0.1-0.8,0.5-1
			C230.8,2.3,231.2,2.5,231.3,3z"/>
		<path style="fill:#43B7BA;" d="M226.8,4.4c0.2,0.4,0,0.8-0.4,1c-0.4,0.2-0.8,0-1-0.5c-0.2-0.4,0-0.8,0.4-1
			C226.3,3.7,226.7,4,226.8,4.4z"/>
		<path style="fill:#43B7BA;" d="M222.5,6.2c0.2,0.4,0.1,0.8-0.3,1c-0.4,0.2-0.8,0-1-0.4c-0.2-0.4-0.1-0.8,0.4-1
			C221.9,5.6,222.3,5.8,222.5,6.2z"/>
		<path style="fill:#43B7BA;" d="M218.3,8.3c0.2,0.4,0.1,0.8-0.3,1.1c-0.4,0.2-0.8,0.1-1-0.3c-0.2-0.4-0.1-0.8,0.3-1.1
			C217.6,7.8,218.1,7.9,218.3,8.3z"/>
		<path style="fill:#43B7BA;" d="M214.3,10.8c0.3,0.4,0.2,0.8-0.2,1.1c-0.4,0.2-0.8,0.2-1.1-0.2c-0.3-0.4-0.2-0.8,0.2-1.1
			C213.6,10.3,214,10.4,214.3,10.8z"/>
		<path style="fill:#43B7BA;" d="M210.5,13.5c0.3,0.3,0.3,0.8-0.1,1.1c-0.3,0.3-0.8,0.2-1.1-0.1c-0.3-0.3-0.3-0.8,0.1-1.1
			C209.8,13.1,210.2,13.2,210.5,13.5z"/>
		<path style="fill:#43B7BA;" d="M206.9,16.6c0.3,0.3,0.3,0.8,0,1.1c-0.3,0.3-0.8,0.3-1.1-0.1c-0.3-0.3-0.3-0.8,0-1.1
			C206.2,16.2,206.6,16.3,206.9,16.6z"/>
		<path style="fill:#43B7BA;" d="M203.6,19.9c0.3,0.3,0.4,0.8,0.1,1.1c-0.3,0.3-0.7,0.3-1.1,0c-0.3-0.3-0.4-0.7-0.1-1.1
			C202.9,19.6,203.3,19.6,203.6,19.9z"/>
		<path style="fill:#43B7BA;" d="M200.6,23.5c0.4,0.3,0.4,0.7,0.2,1.1c-0.3,0.3-0.7,0.4-1.1,0.1c-0.4-0.3-0.4-0.7-0.2-1.1
			C199.8,23.3,200.3,23.3,200.6,23.5z"/>
	</g>
	<g>
		<path style="fill:#43B7BA;" d="M392.4,25.5c-0.4,0.3-0.8,0.2-1.1-0.1c-0.3-0.4-0.2-0.8,0.2-1.1c0.4-0.3,0.8-0.2,1.1,0.1
			C392.8,24.8,392.8,25.2,392.4,25.5z"/>
		<path style="fill:#43B7BA;" d="M389.5,21.8c-0.3,0.3-0.8,0.3-1.1,0c-0.3-0.3-0.2-0.8,0.1-1.1c0.3-0.3,0.8-0.3,1.1,0.1
			C389.9,21,389.8,21.5,389.5,21.8z"/>
		<path style="fill:#43B7BA;" d="M386.3,18.3c-0.3,0.3-0.8,0.3-1.1,0c-0.3-0.3-0.3-0.7,0-1.1c0.3-0.3,0.8-0.4,1.1,0
			C386.6,17.6,386.6,18,386.3,18.3z"/>
		<path style="fill:#43B7BA;" d="M382.8,15.2c-0.3,0.3-0.7,0.4-1.1,0.1c-0.3-0.3-0.4-0.7-0.1-1.1c0.3-0.3,0.7-0.4,1.1-0.1
			C383.1,14.4,383.1,14.8,382.8,15.2z"/>
		<path style="fill:#43B7BA;" d="M379.1,12.3c-0.3,0.4-0.7,0.5-1.1,0.2c-0.4-0.3-0.4-0.7-0.2-1.1c0.3-0.4,0.7-0.5,1.1-0.2
			C379.3,11.5,379.4,11.9,379.1,12.3z"/>
		<path style="fill:#43B7BA;" d="M375.2,9.7c-0.2,0.4-0.7,0.5-1,0.3c-0.4-0.2-0.5-0.7-0.2-1.1c0.2-0.4,0.7-0.5,1.1-0.3
			C375.3,8.9,375.4,9.3,375.2,9.7z"/>
		<path style="fill:#43B7BA;" d="M371.1,7.5c-0.2,0.4-0.6,0.6-1,0.4c-0.4-0.2-0.5-0.6-0.3-1c0.2-0.4,0.6-0.6,1-0.4
			C371.1,6.6,371.2,7,371.1,7.5z"/>
		<path style="fill:#43B7BA;" d="M366.7,5.5c-0.2,0.4-0.6,0.6-1,0.5c-0.4-0.2-0.6-0.6-0.4-1c0.2-0.4,0.6-0.6,1-0.5
			C366.7,4.7,366.9,5.1,366.7,5.5z"/>
		<path style="fill:#43B7BA;" d="M362.3,4c-0.1,0.4-0.5,0.7-0.9,0.5c-0.4-0.1-0.6-0.5-0.5-1c0.1-0.4,0.5-0.7,1-0.5
			C362.3,3.2,362.4,3.6,362.3,4z"/>
		<path style="fill:#43B7BA;" d="M357.8,2.8c-0.1,0.4-0.5,0.7-0.9,0.6c-0.4-0.1-0.7-0.5-0.6-0.9c0.1-0.4,0.5-0.7,0.9-0.6
			C357.6,2,357.9,2.4,357.8,2.8z"/>
		<path style="fill:#43B7BA;" d="M353.1,2c-0.1,0.4-0.4,0.7-0.8,0.7c-0.4-0.1-0.7-0.4-0.6-0.9c0.1-0.4,0.4-0.7,0.9-0.7
			C352.9,1.2,353.2,1.5,353.1,2z"/>
		<path style="fill:#43B7BA;" d="M348.5,1.6c0,0.4-0.3,0.8-0.8,0.8c-0.4,0-0.7-0.4-0.7-0.8c0-0.5,0.3-0.8,0.8-0.8
			C348.2,0.8,348.5,1.1,348.5,1.6z"/>
		<path style="fill:#43B7BA;" d="M343.8,1.5c0,0.4-0.3,0.8-0.7,0.8c-0.4,0-0.7-0.3-0.8-0.8c0-0.4,0.3-0.8,0.7-0.8
			C343.5,0.7,343.8,1,343.8,1.5z"/>
		<path style="fill:#43B7BA;" d="M339.1,1.8c0.1,0.4-0.2,0.8-0.7,0.9c-0.4,0.1-0.8-0.2-0.8-0.7c-0.1-0.4,0.2-0.8,0.7-0.9
			C338.7,1,339,1.3,339.1,1.8z"/>
		<path style="fill:#43B7BA;" d="M334.4,2.5c0.1,0.4-0.2,0.8-0.6,0.9c-0.4,0.1-0.8-0.2-0.9-0.6c-0.1-0.4,0.1-0.8,0.6-0.9
			C334,1.8,334.4,2,334.4,2.5z"/>
		<path style="fill:#43B7BA;" d="M329.9,3.5c0.1,0.4-0.1,0.8-0.5,1c-0.4,0.1-0.8-0.1-0.9-0.6c-0.1-0.4,0.1-0.8,0.5-1
			C329.4,2.8,329.7,3.1,329.9,3.5z"/>
		<path style="fill:#43B7BA;" d="M325.4,4.9c0.2,0.4,0,0.8-0.4,1c-0.4,0.2-0.8,0-1-0.5c-0.2-0.4,0-0.8,0.4-1
			C324.8,4.3,325.2,4.5,325.4,4.9z"/>
		<path style="fill:#43B7BA;" d="M321,6.7c0.2,0.4,0.1,0.8-0.3,1c-0.4,0.2-0.8,0-1-0.4c-0.2-0.4-0.1-0.8,0.4-1
			C320.4,6.1,320.8,6.3,321,6.7z"/>
		<path style="fill:#43B7BA;" d="M316.8,8.9c0.2,0.4,0.1,0.8-0.3,1.1c-0.4,0.2-0.8,0.1-1-0.3c-0.2-0.4-0.1-0.8,0.3-1.1
			C316.2,8.3,316.6,8.5,316.8,8.9z"/>
		<path style="fill:#43B7BA;" d="M312.8,11.3c0.3,0.4,0.2,0.8-0.2,1.1c-0.4,0.2-0.8,0.1-1.1-0.2c-0.3-0.4-0.2-0.8,0.2-1.1
			C312.1,10.8,312.6,11,312.8,11.3z"/>
		<path style="fill:#43B7BA;" d="M309,14.1c0.3,0.3,0.3,0.8-0.1,1.1c-0.3,0.3-0.8,0.2-1.1-0.1c-0.3-0.4-0.3-0.8,0.1-1.1
			C308.3,13.7,308.7,13.7,309,14.1z"/>
		<path style="fill:#43B7BA;" d="M305.5,17.2c0.3,0.3,0.3,0.8,0,1.1c-0.3,0.3-0.8,0.3-1.1-0.1c-0.3-0.3-0.3-0.8,0-1.1
			C304.7,16.8,305.2,16.9,305.5,17.2z"/>
		<path style="fill:#43B7BA;" d="M302.2,20.5c0.3,0.3,0.4,0.8,0.1,1.1c-0.3,0.3-0.7,0.3-1.1,0c-0.3-0.3-0.4-0.7-0.1-1.1
			C301.4,20.2,301.8,20.2,302.2,20.5z"/>
		<path style="fill:#43B7BA;" d="M299.2,24.1c0.4,0.3,0.4,0.7,0.2,1.1c-0.3,0.4-0.7,0.4-1.1,0.1c-0.4-0.3-0.4-0.7-0.2-1.1
			C298.4,23.9,298.8,23.8,299.2,24.1z"/>
	</g>
</g>
<g>
	<g>
		<path style="fill:#43B7BA;" d="M494.6,29.4c-0.4,0.2-0.8,0.2-1.1-0.2c-0.2-0.4-0.1-0.8,0.3-1c0.4-0.2,0.8-0.2,1.1,0.2
			C495.1,28.7,495,29.1,494.6,29.4z"/>
		<path style="fill:#43B7BA;" d="M492,25.5c-0.4,0.3-0.8,0.2-1.1-0.1c-0.3-0.4-0.2-0.8,0.2-1.1c0.4-0.3,0.8-0.2,1.1,0.1
			C492.5,24.8,492.4,25.2,492,25.5z"/>
		<path style="fill:#43B7BA;" d="M489.1,21.8c-0.3,0.3-0.8,0.3-1.1,0c-0.3-0.3-0.2-0.8,0.1-1.1c0.3-0.3,0.8-0.3,1.1,0.1
			C489.5,21,489.5,21.5,489.1,21.8z"/>
		<path style="fill:#43B7BA;" d="M485.9,18.3c-0.3,0.3-0.8,0.3-1.1,0c-0.3-0.3-0.3-0.7,0-1.1c0.3-0.3,0.8-0.4,1.1,0
			C486.2,17.6,486.2,18,485.9,18.3z"/>
		<path style="fill:#43B7BA;" d="M482.5,15.2c-0.3,0.3-0.7,0.4-1.1,0.1c-0.3-0.3-0.4-0.7-0.1-1.1c0.3-0.3,0.7-0.4,1.1-0.1
			C482.7,14.4,482.7,14.8,482.5,15.2z"/>
		<path style="fill:#43B7BA;" d="M478.8,12.3c-0.3,0.4-0.7,0.5-1.1,0.2c-0.4-0.3-0.4-0.7-0.2-1.1c0.3-0.4,0.7-0.5,1.1-0.2
			C479,11.5,479,11.9,478.8,12.3z"/>
		<path style="fill:#43B7BA;" d="M474.8,9.7c-0.2,0.4-0.7,0.5-1,0.3c-0.4-0.2-0.5-0.7-0.2-1.1c0.2-0.4,0.7-0.5,1.1-0.3
			C474.9,8.9,475,9.3,474.8,9.7z"/>
		<path style="fill:#43B7BA;" d="M470.7,7.4c-0.2,0.4-0.6,0.6-1,0.4c-0.4-0.2-0.5-0.6-0.3-1c0.2-0.4,0.6-0.6,1-0.4
			C470.8,6.6,470.9,7,470.7,7.4z"/>
		<path style="fill:#43B7BA;" d="M466.4,5.5c-0.2,0.4-0.6,0.6-1,0.5c-0.4-0.2-0.6-0.6-0.4-1c0.2-0.4,0.6-0.6,1-0.5
			C466.4,4.7,466.5,5.1,466.4,5.5z"/>
		<path style="fill:#43B7BA;" d="M461.9,4c-0.1,0.4-0.5,0.7-0.9,0.5c-0.4-0.1-0.6-0.5-0.5-1c0.1-0.4,0.5-0.7,0.9-0.5
			C461.9,3.1,462.1,3.6,461.9,4z"/>
		<path style="fill:#43B7BA;" d="M457.4,2.8c-0.1,0.4-0.5,0.7-0.9,0.6c-0.4-0.1-0.7-0.5-0.6-0.9c0.1-0.4,0.5-0.7,0.9-0.6
			C457.3,2,457.5,2.4,457.4,2.8z"/>
		<path style="fill:#43B7BA;" d="M452.8,2c-0.1,0.4-0.4,0.7-0.8,0.7c-0.4-0.1-0.7-0.4-0.6-0.9c0.1-0.4,0.4-0.7,0.9-0.7
			C452.6,1.2,452.8,1.5,452.8,2z"/>
		<path style="fill:#43B7BA;" d="M448.1,1.5c0,0.4-0.3,0.8-0.8,0.8c-0.4,0-0.7-0.4-0.7-0.8c0-0.4,0.3-0.8,0.8-0.8
			C447.8,0.8,448.1,1.1,448.1,1.5z"/>
		<path style="fill:#43B7BA;" d="M443.4,1.5c0,0.5-0.3,0.8-0.7,0.8c-0.4,0-0.7-0.3-0.8-0.8c0-0.4,0.3-0.8,0.7-0.8
			C443.1,0.7,443.4,1,443.4,1.5z"/>
		<path style="fill:#43B7BA;" d="M438.7,1.8c0.1,0.4-0.2,0.8-0.7,0.9c-0.4,0.1-0.8-0.2-0.8-0.7c-0.1-0.4,0.2-0.8,0.7-0.9
			C438.3,1,438.7,1.3,438.7,1.8z"/>
		<path style="fill:#43B7BA;" d="M434.1,2.5c0.1,0.4-0.2,0.8-0.6,0.9c-0.4,0.1-0.8-0.2-0.9-0.6c-0.1-0.4,0.1-0.8,0.6-0.9
			C433.6,1.8,434,2,434.1,2.5z"/>
		<path style="fill:#43B7BA;" d="M429.5,3.5c0.1,0.4-0.1,0.8-0.5,1c-0.4,0.1-0.8-0.1-0.9-0.6c-0.1-0.4,0.1-0.8,0.5-1
			C429,2.8,429.4,3.1,429.5,3.5z"/>
		<path style="fill:#43B7BA;" d="M425,4.9c0.2,0.4,0,0.8-0.4,1c-0.4,0.2-0.8,0-1-0.5c-0.2-0.4,0-0.8,0.4-1
			C424.5,4.3,424.9,4.5,425,4.9z"/>
		<path style="fill:#43B7BA;" d="M420.6,6.7c0.2,0.4,0.1,0.8-0.3,1c-0.4,0.2-0.8,0-1-0.4c-0.2-0.4-0.1-0.8,0.4-1
			C420,6.1,420.4,6.3,420.6,6.7z"/>
		<path style="fill:#43B7BA;" d="M416.5,8.9c0.2,0.4,0.1,0.8-0.3,1.1c-0.4,0.2-0.8,0.1-1-0.3c-0.2-0.4-0.1-0.8,0.3-1.1
			C415.8,8.3,416.2,8.5,416.5,8.9z"/>
		<path style="fill:#43B7BA;" d="M412.4,11.3c0.3,0.4,0.2,0.8-0.2,1.1c-0.4,0.2-0.8,0.1-1-0.2c-0.3-0.4-0.2-0.8,0.2-1.1
			C411.8,10.8,412.2,10.9,412.4,11.3z"/>
		<path style="fill:#43B7BA;" d="M408.7,14.1c0.3,0.3,0.3,0.8-0.1,1.1c-0.3,0.3-0.8,0.2-1.1-0.1c-0.3-0.3-0.3-0.8,0.1-1.1
			C407.9,13.7,408.4,13.7,408.7,14.1z"/>
		<path style="fill:#43B7BA;" d="M405.1,17.2c0.3,0.3,0.3,0.8,0,1.1c-0.3,0.3-0.8,0.3-1.1-0.1c-0.3-0.3-0.3-0.8,0-1.1
			C404.3,16.8,404.8,16.8,405.1,17.2z"/>
		<path style="fill:#43B7BA;" d="M401.8,20.5c0.3,0.3,0.4,0.8,0.1,1.1c-0.3,0.3-0.7,0.3-1.1,0c-0.3-0.3-0.4-0.7-0.1-1.1
			C401,20.2,401.5,20.2,401.8,20.5z"/>
		<path style="fill:#43B7BA;" d="M398.8,24.1c0.4,0.3,0.4,0.7,0.2,1.1c-0.3,0.3-0.7,0.4-1.1,0.1c-0.4-0.3-0.4-0.7-0.2-1.1
			C398,23.9,398.4,23.8,398.8,24.1z"/>
		<path style="fill:#43B7BA;" d="M395.7,27.9c0.4,0.2,0.5,0.7,0.3,1.1c-0.2,0.4-0.7,0.4-1.1,0.2c-0.4-0.2-0.5-0.7-0.3-1.1
			C394.8,27.8,395.3,27.7,395.7,27.9z"/>
	</g>
	<g>
		<path style="fill:#43B7BA;" d="M576.9,12.4c-0.3,0.4-0.7,0.5-1.1,0.2c-0.4-0.2-0.4-0.7-0.2-1.1c0.3-0.4,0.7-0.5,1.1-0.2
			C577.1,11.5,577.2,12,576.9,12.4z"/>
		<path style="fill:#43B7BA;" d="M573,9.8c-0.2,0.4-0.7,0.5-1,0.3c-0.4-0.2-0.5-0.7-0.2-1c0.2-0.4,0.7-0.5,1.1-0.3
			C573.1,8.9,573.2,9.4,573,9.8z"/>
		<path style="fill:#43B7BA;" d="M568.9,7.5c-0.2,0.4-0.6,0.6-1,0.4c-0.4-0.2-0.5-0.6-0.3-1c0.2-0.4,0.6-0.6,1-0.4
			C568.9,6.7,569.1,7.1,568.9,7.5z"/>
		<path style="fill:#43B7BA;" d="M564.5,5.6c-0.2,0.4-0.6,0.6-1,0.5c-0.4-0.2-0.6-0.6-0.4-1c0.2-0.4,0.6-0.6,1-0.5
			C564.5,4.8,564.7,5.2,564.5,5.6z"/>
		<path style="fill:#43B7BA;" d="M560.1,4.1c-0.1,0.4-0.5,0.7-0.9,0.5c-0.4-0.1-0.6-0.5-0.5-1c0.1-0.4,0.5-0.7,1-0.5
			C560.1,3.2,560.3,3.6,560.1,4.1z"/>
		<path style="fill:#43B7BA;" d="M555.6,2.9c-0.1,0.4-0.5,0.7-0.9,0.6c-0.4-0.1-0.7-0.5-0.6-0.9c0.1-0.4,0.5-0.7,0.9-0.6
			C555.4,2.1,555.7,2.4,555.6,2.9z"/>
		<path style="fill:#43B7BA;" d="M550.9,2.1c-0.1,0.4-0.4,0.7-0.8,0.7c-0.4-0.1-0.7-0.4-0.6-0.9c0.1-0.4,0.4-0.7,0.9-0.7
			C550.7,1.3,551,1.6,550.9,2.1z"/>
		<path style="fill:#43B7BA;" d="M546.3,1.6c0,0.4-0.3,0.8-0.8,0.8c-0.4,0-0.7-0.4-0.7-0.8c0-0.4,0.3-0.8,0.8-0.8
			C546,0.8,546.3,1.2,546.3,1.6z"/>
		<path style="fill:#43B7BA;" d="M541.6,1.6c0,0.4-0.3,0.8-0.7,0.8c-0.4,0-0.7-0.3-0.8-0.8c0-0.4,0.3-0.8,0.7-0.8
			C541.3,0.8,541.6,1.1,541.6,1.6z"/>
		<path style="fill:#43B7BA;" d="M536.9,1.9c0.1,0.4-0.2,0.8-0.7,0.9c-0.4,0-0.8-0.2-0.8-0.7c-0.1-0.4,0.2-0.8,0.7-0.9
			C536.5,1.1,536.8,1.4,536.9,1.9z"/>
		<path style="fill:#43B7BA;" d="M532.2,2.5c0.1,0.4-0.2,0.8-0.6,0.9c-0.4,0.1-0.8-0.2-0.9-0.6c-0.1-0.4,0.1-0.8,0.6-0.9
			C531.8,1.8,532.2,2.1,532.2,2.5z"/>
		<path style="fill:#43B7BA;" d="M527.7,3.6c0.1,0.4-0.1,0.8-0.5,1c-0.4,0.1-0.8-0.1-0.9-0.6c-0.1-0.4,0.1-0.8,0.5-1
			C527.2,2.9,527.5,3.2,527.7,3.6z"/>
		<path style="fill:#43B7BA;" d="M523.2,5c0.2,0.4,0,0.8-0.4,1c-0.4,0.2-0.8,0-1-0.5c-0.2-0.4,0-0.8,0.4-1
			C522.6,4.4,523,4.6,523.2,5z"/>
		<path style="fill:#43B7BA;" d="M518.8,6.8c0.2,0.4,0.1,0.8-0.3,1c-0.4,0.2-0.8,0-1-0.4c-0.2-0.4-0.1-0.8,0.4-1
			C518.2,6.2,518.6,6.4,518.8,6.8z"/>
		<path style="fill:#43B7BA;" d="M514.6,8.9c0.2,0.4,0.1,0.8-0.3,1.1c-0.4,0.2-0.8,0.1-1-0.3c-0.2-0.4-0.1-0.8,0.3-1.1
			C514,8.4,514.4,8.5,514.6,8.9z"/>
		<path style="fill:#43B7BA;" d="M510.6,11.4c0.3,0.4,0.2,0.8-0.2,1.1c-0.4,0.2-0.8,0.1-1.1-0.2c-0.3-0.4-0.2-0.8,0.2-1.1
			C509.9,10.9,510.4,11,510.6,11.4z"/>
		<path style="fill:#43B7BA;" d="M506.8,14.2c0.3,0.3,0.3,0.8-0.1,1.1c-0.3,0.3-0.8,0.2-1.1-0.1c-0.3-0.3-0.3-0.8,0.1-1.1
			C506.1,13.7,506.6,13.8,506.8,14.2z"/>
		<path style="fill:#43B7BA;" d="M503.3,17.3c0.3,0.3,0.3,0.8,0,1.1c-0.3,0.3-0.8,0.3-1.1-0.1c-0.3-0.3-0.3-0.8,0-1.1
			C502.5,16.9,503,16.9,503.3,17.3z"/>
		<path style="fill:#43B7BA;" d="M500,20.6c0.3,0.3,0.4,0.8,0.1,1.1c-0.3,0.3-0.7,0.3-1.1,0c-0.3-0.3-0.4-0.7-0.1-1.1
			C499.2,20.3,499.6,20.3,500,20.6z"/>
		<path style="fill:#43B7BA;" d="M497,24.2c0.4,0.3,0.4,0.7,0.2,1.1c-0.3,0.3-0.7,0.4-1.1,0.1c-0.4-0.3-0.4-0.7-0.2-1.1
			C496.2,24,496.6,23.9,497,24.2z"/>
	</g>
</g>
<circle style="fill:#E76647;" cx="582.8" cy="18.7" r="3.6"/>
</svg>
