<svg version="1.1" id="" xmlns="http://www.w3.org/2000/svg" xmlns:xlink="http://www.w3.org/1999/xlink" x="0px" y="0px"
	 viewBox="0 0 200 200" style="enable-background:new 0 0 200 200;" xml:space="preserve">
<g>
	<path style="fill:#FFB547;" d="M178.6,99.4c0,43.9-35.6,79.5-79.5,79.5s-79.5-35.6-79.5-79.5c0-43.9,35.6-79.5,79.5-79.5
		S178.6,55.5,178.6,99.4"/>
	<rect x="59.8" y="62.8" style="fill:#FFFFFF;" width="78.6" height="55.1"/>
	<path style="fill:#FFFFFF;" d="M110.8,122.1H99.1H87.4c0,0,1.8,7.6-7.4,14.5h19.1h19.1C109.1,129.7,110.8,122.1,110.8,122.1"/>
	<g style="opacity:0.25;enable-background:new    ;">
		<g>
			<defs>
				<rect id="SVGID_5_" x="59.1" y="62" width="4" height="56"/>
			</defs>
			<clipPath id="SVGID_6_">
				<use xlink:href="#SVGID_5_"  style="overflow:visible;"/>
			</clipPath>
			<g style="clip-path:url(#SVGID_6_);">
				<defs>
					<rect id="SVGID_7_" x="59.8" y="62.8" width="3.1" height="55.1"/>
				</defs>
				<clipPath id="SVGID_8_">
					<use xlink:href="#SVGID_7_"  style="overflow:visible;"/>
				</clipPath>
				<rect x="59.8" y="62.8" style="clip-path:url(#SVGID_8_);fill:#FFB547;" width="3.1" height="55.1"/>
			</g>
		</g>
	</g>
	<g style="opacity:0.25;enable-background:new    ;">
		<g>
			<defs>
				<rect id="SVGID_9_" x="79.1" y="122" width="12" height="15"/>
			</defs>
			<clipPath id="SVGID_10_">
				<use xlink:href="#SVGID_9_"  style="overflow:visible;"/>
			</clipPath>
			<g style="clip-path:url(#SVGID_10_);">
				<defs>
					<rect id="SVGID_11_" x="80" y="122.1" width="10.6" height="14.5"/>
				</defs>
				<clipPath id="SVGID_12_">
					<use xlink:href="#SVGID_11_"  style="overflow:visible;"/>
				</clipPath>
				<path style="clip-path:url(#SVGID_12_);fill:#FFB547;" d="M90.5,122.1h-3.1c0,0,1.8,7.6-7.4,14.5h3.1
					C92.3,129.7,90.5,122.1,90.5,122.1"/>
			</g>
		</g>
	</g>
	<g>
		<path style="fill:#FFB547;" d="M109.9,103.7l-3.9-7l4.5-1.1c0.4-0.1,0.6-0.4,0.7-0.7c0.1-0.4-0.1-0.7-0.3-0.9L95.6,82
			c-0.3-0.2-0.7-0.3-1-0.1c-0.3,0.2-0.5,0.5-0.5,0.9l1.9,19.3c0,0.4,0.3,0.7,0.6,0.8c0.3,0.1,0.7,0,1-0.2l3.4-3.2l3.9,7
			c0.1,0.2,0.3,0.4,0.6,0.5c0.2,0.1,0.5,0,0.7-0.1l3.4-1.9C109.9,104.7,110.1,104.2,109.9,103.7"/>
		<path style="fill:#FFB547;" d="M92.7,76.7c-0.3-0.5-0.8-0.6-1.3-0.4c-0.5,0.3-0.6,0.8-0.4,1.3l1.4,2.6c0.1,0.2,0.3,0.4,0.6,0.5
			c0.2,0.1,0.5,0,0.7-0.1c0.5-0.3,0.6-0.8,0.4-1.3L92.7,76.7z"/>
		<path style="fill:#FFB547;" d="M91.6,83.2c0.1-0.5-0.1-1-0.7-1.2L88,81.2c-0.5-0.1-1,0.1-1.2,0.7c-0.1,0.5,0.1,1,0.6,1.2l2.9,0.8
			C90.9,84,91.4,83.7,91.6,83.2"/>
		<path style="fill:#FFB547;" d="M90.4,85.9l-2.6,1.4c-0.5,0.3-0.6,0.8-0.4,1.3c0.1,0.2,0.3,0.4,0.6,0.5c0.2,0.1,0.5,0,0.7-0.1
			l2.6-1.4c0.5-0.3,0.6-0.8,0.4-1.3C91.4,85.8,90.8,85.6,90.4,85.9"/>
		<path style="fill:#FFB547;" d="M97.1,80.1c0.5,0.1,1-0.1,1.2-0.7l0.8-2.9c0.1-0.5-0.1-1-0.7-1.2c-0.5-0.1-1,0.1-1.2,0.6l-0.8,2.9
			C96.3,79.4,96.6,79.9,97.1,80.1"/>
		<path style="fill:#FFB547;" d="M100.3,82.3c0.2,0.1,0.5,0,0.7-0.1l2.6-1.4c0.5-0.3,0.6-0.8,0.4-1.3c-0.3-0.5-0.8-0.6-1.3-0.4
			l-2.6,1.4c-0.5,0.3-0.6,0.8-0.4,1.3C99.8,82.1,100,82.2,100.3,82.3"/>
	</g>
</g>
</svg>
