<svg version="1.1" id="" xmlns="http://www.w3.org/2000/svg" xmlns:xlink="http://www.w3.org/1999/xlink" x="0px" y="0px"
	 viewBox="0 0 200 200" style="enable-background:new 0 0 200 200;" xml:space="preserve">
<g>
	<path style="fill:#E76647;" d="M178.6,99.6c0,43.9-35.6,79.5-79.5,79.5c-43.9,0-79.5-35.6-79.5-79.5c0-43.9,35.6-79.5,79.5-79.5
		C143,20.1,178.6,55.7,178.6,99.6"/>
	<circle style="fill:#FFFFFF;" cx="99.1" cy="99.6" r="36.2"/>
	<g id="Layer_2_1_">
		<g>
			<path style="opacity:0.5;fill:#E76647;" d="M105,123.5c-0.5,0.1-1,0.2-1.5,0.3c-1.3,0.2-2.1,1.5-1.9,2.7c0.1,0.6,0.5,1.1,1,1.5
				c0.5,0.3,1.1,0.5,1.8,0.4c0.6-0.1,1.2-0.2,1.7-0.4c1.3-0.3,2-1.6,1.7-2.8C107.5,123.9,106.2,123.2,105,123.5z"/>
			<path style="opacity:0.5;fill:#E76647;" d="M122.3,92.1c0.2,0.5,0.5,0.9,0.9,1.2c0.6,0.4,1.4,0.6,2.1,0.3c1.2-0.4,1.9-1.7,1.5-3
				c-0.2-0.6-0.4-1.1-0.6-1.7c-0.5-1.2-1.8-1.8-3-1.3c-1.2,0.5-1.8,1.8-1.3,3C121.9,91.2,122.1,91.7,122.3,92.1z"/>
			<path style="opacity:0.5;fill:#E76647;" d="M112.6,120.1c-0.4,0.3-0.8,0.5-1.3,0.8c-1.1,0.6-1.5,2.1-0.9,3.2
				c0.2,0.3,0.4,0.6,0.7,0.7c0.7,0.5,1.7,0.6,2.5,0.1c0.5-0.3,1-0.6,1.5-0.9c1.1-0.7,1.4-2.2,0.7-3.2
				C115.1,119.7,113.7,119.4,112.6,120.1z"/>
			<path style="opacity:0.5;fill:#E76647;" d="M128.2,98.7c-0.1-1.3-1.1-2.3-2.4-2.2c-1.3,0.1-2.3,1.1-2.2,2.4c0,0.5,0,1,0,1.5
				c0,0.8,0.4,1.5,1,2c0.4,0.3,0.8,0.4,1.3,0.4c1.3,0,2.4-1,2.4-2.3C128.2,99.9,128.2,99.3,128.2,98.7z"/>
			<path style="opacity:0.5;fill:#E76647;" d="M121.9,114c-1-0.8-2.5-0.6-3.3,0.5c-0.3,0.4-0.6,0.8-0.9,1.2c-0.8,1-0.7,2.5,0.3,3.3
				c0.1,0,0.1,0.1,0.2,0.1c1,0.7,2.3,0.5,3.1-0.4c0.4-0.4,0.8-0.9,1.1-1.4C123.1,116.2,122.9,114.8,121.9,114z"/>
			<path style="opacity:0.5;fill:#E76647;" d="M125.3,105.5c-1.2-0.4-2.5,0.3-2.9,1.5c-0.1,0.5-0.3,0.9-0.5,1.4
				c-0.4,1,0,2.1,0.8,2.7c0.2,0.1,0.3,0.2,0.5,0.3c1.2,0.5,2.6-0.1,3-1.4c0.2-0.6,0.4-1.1,0.6-1.7
				C127.2,107.2,126.6,105.9,125.3,105.5z"/>
			<path style="fill:#E76647;" d="M94.8,123.8c-2.1-0.4-4.1-1-6-1.9c0,0,0,0-0.1,0c-0.4-0.2-0.9-0.4-1.3-0.7c0,0,0,0,0,0
				c-0.8-0.4-1.6-0.9-2.3-1.5c-11-7.7-13.6-23-5.9-34c1.7-2.4,3.7-4.4,6-6c0,0,0.1,0,0.1-0.1c8-5.5,18.9-5.9,27.4-0.2l-1.8,2.6
				c-0.5,0.7-0.2,1.3,0.7,1.2l7.9-0.7c0.9-0.1,1.4-0.8,1.2-1.7l-2.1-7.7c-0.2-0.9-0.8-1-1.4-0.2l-1.8,2.6
				c-6.2-4.2-13.7-5.8-21.1-4.5c-0.7,0.1-1.5,0.3-2.2,0.5c0,0,0,0,0,0c0,0-0.1,0-0.1,0c-6.4,1.6-12,5.4-16,10.7c0,0-0.1,0.1-0.1,0.1
				c-0.1,0.2-0.3,0.4-0.4,0.5c-0.2,0.3-0.4,0.6-0.6,0.9c0,0,0,0.1-0.1,0.1c-3.3,5.1-4.9,11-4.6,17c0,0,0,0,0,0.1
				c0,0.6,0.1,1.2,0.1,1.8c0,0,0,0.1,0,0.1c0.1,0.6,0.1,1.2,0.2,1.8c1,6,3.9,11.4,8.1,15.6c0,0,0,0,0,0c0,0,0,0,0,0
				c1.1,1.1,2.4,2.2,3.7,3.1c3.5,2.5,7.4,4.1,11.6,4.8c1.3,0.2,2.5-0.6,2.7-1.9C96.9,125.2,96.1,124,94.8,123.8z"/>
			<path style="fill:#E76647;" d="M97.7,80.9c-1,0-1.9,0.8-1.9,1.9v18.8l17.2,8.9c0.3,0.1,0.6,0.2,0.9,0.2c0.7,0,1.3-0.4,1.7-1
				c0.5-0.9,0.1-2.1-0.8-2.5l-15.2-7.8V82.8C99.6,81.8,98.7,80.9,97.7,80.9z"/>
		</g>
	</g>
</g>
</svg>
