<svg version="1.1" id="" xmlns="http://www.w3.org/2000/svg" xmlns:xlink="http://www.w3.org/1999/xlink" x="0px" y="0px"
	 viewBox="0 0 200 200" style="enable-background:new 0 0 200 200;" xml:space="preserve">
<g>
	<path style="fill:#E76647;" d="M178.6,99.6c0,43.9-35.6,79.5-79.5,79.5c-43.9,0-79.5-35.6-79.5-79.5c0-43.9,35.6-79.5,79.5-79.5
		C143,20.1,178.6,55.7,178.6,99.6"/>
	<circle style="fill:#FFFFFF;" cx="99.1" cy="99.6" r="36.2"/>
	<g id="Layer_2_1_">
		<g>
			<path style="opacity:0.5;fill:#E76647;" d="M105,123.5c-0.5,0.1-1,0.2-1.5,0.3c-1.3,0.2-2.1,1.5-1.9,2.7c0.1,0.6,0.5,1.1,1,1.5
				c0.5,0.3,1.1,0.5,1.8,0.4c0.6-0.1,1.2-0.2,1.7-0.4c1.3-0.3,2-1.6,1.7-2.8C107.5,123.9,106.2,123.2,105,123.5z"/>
			<path style="opacity:0.5;fill:#E76647;" d="M122.3,92.1c0.2,0.5,0.5,0.9,0.9,1.2c0.6,0.4,1.4,0.6,2.1,0.3c1.2-0.4,1.9-1.7,1.5-3
				c-0.2-0.6-0.4-1.1-0.6-1.7c-0.5-1.2-1.8-1.8-3-1.3c-1.2,0.5-1.8,1.8-1.3,3C121.9,91.2,122.1,91.7,122.3,92.1z"/>
			<path style="opacity:0.5;fill:#E76647;" d="M112.6,120.1c-0.4,0.3-0.8,0.5-1.3,0.8c-1.1,0.6-1.5,2.1-0.9,3.2
				c0.2,0.3,0.4,0.6,0.7,0.7c0.7,0.5,1.7,0.6,2.5,0.1c0.5-0.3,1-0.6,1.5-0.9c1.1-0.7,1.4-2.2,0.7-3.2
				C115.1,119.7,113.7,119.4,112.6,120.1z"/>
			<path style="opacity:0.5;fill:#E76647;" d="M128.2,98.7c-0.1-1.3-1.1-2.3-2.4-2.2c-1.3,0.1-2.3,1.1-2.2,2.4c0,0.5,0,1,0,1.5
				c0,0.8,0.4,1.5,1,2c0.4,0.3,0.8,0.4,1.3,0.4c1.3,0,2.4-1,2.4-2.3C128.2,99.9,128.2,99.3,128.2,98.7z"/>
			<path style="opacity:0.5;fill:#E76647;" d="M121.9,114c-1-0.8-2.5-0.6-3.3,0.5c-0.3,0.4-0.6,0.8-0.9,1.2c-0.8,1-0.7,2.5,0.3,3.3
				c0.1,0,0.1,0.1,0.2,0.1c1,0.7,2.3,0.5,3.1-0.4c0.4-0.4,0.8-0.9,1.1-1.4C123.1,116.2,122.9,114.8,121.9,114z"/>
			<path style="opacity:0.5;fill:#E76647;" d="M125.3,105.5c-1.2-0.4-2.5,0.3-2.9,1.5c-0.1,0.5-0.3,0.9-0.5,1.4
				c-0.4,1,0,2.1,0.8,2.7c0.2,0.1,0.3,0.2,0.5,0.3c1.2,0.5,2.6-0.1,3-1.4c0.2-0.6,0.4-1.1,0.6-1.7
				C127.2,107.2,126.6,105.9,125.3,105.5z"/>
			<path style="fill:#E76647;" d="M94.8,123.8c-2.1-0.4-4.1-1-6-1.9c0,0,0,0-0.1,0c-0.4-0.2-0.9-0.4-1.3-0.7c0,0,0,0,0,0
				c-0.8-0.4-1.6-0.9-2.3-1.5c-11-7.7-13.6-23-5.9-34c1.7-2.4,3.7-4.4,6-6c0,0,0.1,0,0.1-0.1c8-5.5,18.9-5.9,27.4-0.2l-1.8,2.6
				c-0.5,0.7-0.2,1.3,0.7,1.2l7.9-0.7c0.9-0.1,1.4-0.8,1.2-1.7l-2.1-7.7c-0.2-0.9-0.8-1-1.4-0.2l-1.8,2.6
				c-6.2-4.2-13.7-5.8-21.1-4.5c-0.7,0.1-1.5,0.3-2.2,0.5c0,0,0,0,0,0c0,0-0.1,0-0.1,0c-6.4,1.6-12,5.4-16,10.7c0,0-0.1,0.1-0.1,0.1
				c-0.1,0.2-0.3,0.4-0.4,0.5c-0.2,0.3-0.4,0.6-0.6,0.9c0,0,0,0.1-0.1,0.1c-3.3,5.1-4.9,11-4.6,17c0,0,0,0,0,0.1
				c0,0.6,0.1,1.2,0.1,1.8c0,0,0,0.1,0,0.1c0.1,0.6,0.1,1.2,0.2,1.8c1,6,3.9,11.4,8.1,15.6c0,0,0,0,0,0c0,0,0,0,0,0
				c1.1,1.1,2.4,2.2,3.7,3.1c3.5,2.5,7.4,4.1,11.6,4.8c1.3,0.2,2.5-0.6,2.7-1.9C96.9,125.2,96.1,124,94.8,123.8z"/>
			<path style="fill:#E76647;" d="M97.7,80.9c-1,0-1.9,0.8-1.9,1.9v18.8l17.2,8.9c0.3,0.1,0.6,0.2,0.9,0.2c0.7,0,1.3-0.4,1.7-1
				c0.5-0.9,0.1-2.1-0.8-2.5l-15.2-7.8V82.8C99.6,81.8,98.7,80.9,97.7,80.9z"/>
		</g>
	</g>
</g>
<g>
	<g>
		<path style="fill:#43B5B8;" d="M178.6,99.8c0,43.9-35.6,79.5-79.5,79.5s-79.5-35.6-79.5-79.5c0-43.9,35.6-79.5,79.5-79.5
			S178.6,55.9,178.6,99.8"/>
		<path style="fill:#FFFFFF;" d="M84.2,130.2l2.2,2c7.2,6.5,18.2,6.5,25.5,0l2.2-2c0.4-0.4,0.9-0.8,1.3-1.2c1.6-1.8,3.1-3.6,4.5-5.5
			c9.6-13.3,14.1-30.3,13.7-51.2c0-1.1-0.8-2-1.9-2.2c-5.1-0.7-10.2-1.9-15.1-3.7c-2.6-1-5.4-2.1-8.3-3.5
			c-5.8-2.7-12.5-2.6-18.3,0.1c-2.8,1.3-5.5,2.5-8.1,3.4c-5,1.8-10,3-15.1,3.7c-1.1,0.2-1.9,1.1-2,2.2c-0.5,20.9,4.1,37.9,13.7,51.2
			c1.4,1.9,2.9,3.8,4.5,5.5C83.3,129.3,83.7,129.8,84.2,130.2"/>
		<path style="fill:#43B5B8;" d="M115.1,94.8c0.7-0.6,0.9-1.6,0.6-2.5c-0.3-0.9-1-1.5-1.9-1.6l-8.1-1.2c-0.3,0-0.6-0.3-0.8-0.6
			l-3.6-7.3c-0.4-0.8-1.2-1.3-2.1-1.3c-0.9,0-1.7,0.5-2.1,1.3L93.4,89c-0.2,0.3-0.5,0.5-0.8,0.6l-8.1,1.2c-0.9,0.1-1.6,0.8-1.9,1.6
			c-0.3,0.9-0.1,1.8,0.6,2.5l5.8,5.7c0.2,0.2,0.4,0.6,0.3,0.9l-1.4,8c-0.1,0.7,0.1,1.4,0.5,1.9c0.7,0.8,2,1.1,2.9,0.6l7.2-3.8
			c0.3-0.2,0.7-0.2,1,0l7.2,3.8c0.4,0.2,0.7,0.3,1.1,0.3c0.7,0,1.4-0.3,1.8-0.9c0.5-0.5,0.6-1.2,0.5-1.9l-1.4-8
			c-0.1-0.3,0.1-0.7,0.3-0.9L115.1,94.8z"/>
	</g>
	<g style="opacity:0.2;enable-background:new    ;">
		<g>
			<defs>
				<rect id="SVGID_1_" x="64.4" y="58" width="38" height="79"/>
			</defs>
			<clipPath id="SVGID_2_">
				<use xlink:href="#SVGID_1_"  style="overflow:visible;"/>
			</clipPath>
			<g style="clip-path:url(#SVGID_2_);">
				<defs>
					<rect id="SVGID_3_" x="64.7" y="58.3" width="37.2" height="78.6"/>
				</defs>
				<clipPath id="SVGID_4_">
					<use xlink:href="#SVGID_3_"  style="overflow:visible;"/>
				</clipPath>
				<path style="clip-path:url(#SVGID_4_);fill:#43B5B8;" d="M81.7,126c-9.8-13.6-14.5-31.1-14-52.5c0.1-1.1,0.9-2.1,2-2.3
					c5.2-0.7,10.4-2,15.5-3.8c5.1-1.9,10.6-4.4,16.6-7.8c0,0,0,0,0.1,0c-0.6-0.3-1.1-0.6-1.7-0.9c-0.7-0.4-1.4-0.4-2.2,0
					c-5.8,3.3-11.3,5.8-16.2,7.6c-5,1.8-10,3-15.1,3.7c-1.1,0.2-1.9,1.1-2,2.2c-0.5,20.9,4.1,37.9,13.7,51.2
					c3.8,5.2,8.2,9.7,13.4,13.5C88,133.7,84.7,130,81.7,126"/>
			</g>
		</g>
	</g>
</g>
<g>
	<path style="fill:#FFB547;" d="M178.6,99.4c0,43.9-35.6,79.5-79.5,79.5s-79.5-35.6-79.5-79.5c0-43.9,35.6-79.5,79.5-79.5
		S178.6,55.5,178.6,99.4"/>
	<rect x="59.8" y="62.8" style="fill:#FFFFFF;" width="78.6" height="55.1"/>
	<path style="fill:#FFFFFF;" d="M110.8,122.1H99.1H87.4c0,0,1.8,7.6-7.4,14.5h19.1h19.1C109.1,129.7,110.8,122.1,110.8,122.1"/>
	<g style="opacity:0.25;enable-background:new    ;">
		<g>
			<defs>
				<rect id="SVGID_5_" x="59.1" y="62" width="4" height="56"/>
			</defs>
			<clipPath id="SVGID_6_">
				<use xlink:href="#SVGID_5_"  style="overflow:visible;"/>
			</clipPath>
			<g style="clip-path:url(#SVGID_6_);">
				<defs>
					<rect id="SVGID_7_" x="59.8" y="62.8" width="3.1" height="55.1"/>
				</defs>
				<clipPath id="SVGID_8_">
					<use xlink:href="#SVGID_7_"  style="overflow:visible;"/>
				</clipPath>
				<rect x="59.8" y="62.8" style="clip-path:url(#SVGID_8_);fill:#FFB547;" width="3.1" height="55.1"/>
			</g>
		</g>
	</g>
	<g style="opacity:0.25;enable-background:new    ;">
		<g>
			<defs>
				<rect id="SVGID_9_" x="79.1" y="122" width="12" height="15"/>
			</defs>
			<clipPath id="SVGID_10_">
				<use xlink:href="#SVGID_9_"  style="overflow:visible;"/>
			</clipPath>
			<g style="clip-path:url(#SVGID_10_);">
				<defs>
					<rect id="SVGID_11_" x="80" y="122.1" width="10.6" height="14.5"/>
				</defs>
				<clipPath id="SVGID_12_">
					<use xlink:href="#SVGID_11_"  style="overflow:visible;"/>
				</clipPath>
				<path style="clip-path:url(#SVGID_12_);fill:#FFB547;" d="M90.5,122.1h-3.1c0,0,1.8,7.6-7.4,14.5h3.1
					C92.3,129.7,90.5,122.1,90.5,122.1"/>
			</g>
		</g>
	</g>
	<g>
		<path style="fill:#FFB547;" d="M109.9,103.7l-3.9-7l4.5-1.1c0.4-0.1,0.6-0.4,0.7-0.7c0.1-0.4-0.1-0.7-0.3-0.9L95.6,82
			c-0.3-0.2-0.7-0.3-1-0.1c-0.3,0.2-0.5,0.5-0.5,0.9l1.9,19.3c0,0.4,0.3,0.7,0.6,0.8c0.3,0.1,0.7,0,1-0.2l3.4-3.2l3.9,7
			c0.1,0.2,0.3,0.4,0.6,0.5c0.2,0.1,0.5,0,0.7-0.1l3.4-1.9C109.9,104.7,110.1,104.2,109.9,103.7"/>
		<path style="fill:#FFB547;" d="M92.7,76.7c-0.3-0.5-0.8-0.6-1.3-0.4c-0.5,0.3-0.6,0.8-0.4,1.3l1.4,2.6c0.1,0.2,0.3,0.4,0.6,0.5
			c0.2,0.1,0.5,0,0.7-0.1c0.5-0.3,0.6-0.8,0.4-1.3L92.7,76.7z"/>
		<path style="fill:#FFB547;" d="M91.6,83.2c0.1-0.5-0.1-1-0.7-1.2L88,81.2c-0.5-0.1-1,0.1-1.2,0.7c-0.1,0.5,0.1,1,0.6,1.2l2.9,0.8
			C90.9,84,91.4,83.7,91.6,83.2"/>
		<path style="fill:#FFB547;" d="M90.4,85.9l-2.6,1.4c-0.5,0.3-0.6,0.8-0.4,1.3c0.1,0.2,0.3,0.4,0.6,0.5c0.2,0.1,0.5,0,0.7-0.1
			l2.6-1.4c0.5-0.3,0.6-0.8,0.4-1.3C91.4,85.8,90.8,85.6,90.4,85.9"/>
		<path style="fill:#FFB547;" d="M97.1,80.1c0.5,0.1,1-0.1,1.2-0.7l0.8-2.9c0.1-0.5-0.1-1-0.7-1.2c-0.5-0.1-1,0.1-1.2,0.6l-0.8,2.9
			C96.3,79.4,96.6,79.9,97.1,80.1"/>
		<path style="fill:#FFB547;" d="M100.3,82.3c0.2,0.1,0.5,0,0.7-0.1l2.6-1.4c0.5-0.3,0.6-0.8,0.4-1.3c-0.3-0.5-0.8-0.6-1.3-0.4
			l-2.6,1.4c-0.5,0.3-0.6,0.8-0.4,1.3C99.8,82.1,100,82.2,100.3,82.3"/>
	</g>
</g>
</svg>
