<svg version="1.1" id="" xmlns="http://www.w3.org/2000/svg" xmlns:xlink="http://www.w3.org/1999/xlink" x="0px" y="0px"
	 viewBox="0 0 200 200" style="enable-background:new 0 0 200 200;" xml:space="preserve">
<g>
	<g>
		<path style="fill:#43B5B8;" d="M178.6,99.8c0,43.9-35.6,79.5-79.5,79.5s-79.5-35.6-79.5-79.5c0-43.9,35.6-79.5,79.5-79.5
			S178.6,55.9,178.6,99.8"/>
		<path style="fill:#FFFFFF;" d="M84.2,130.2l2.2,2c7.2,6.5,18.2,6.5,25.5,0l2.2-2c0.4-0.4,0.9-0.8,1.3-1.2c1.6-1.8,3.1-3.6,4.5-5.5
			c9.6-13.3,14.1-30.3,13.7-51.2c0-1.1-0.8-2-1.9-2.2c-5.1-0.7-10.2-1.9-15.1-3.7c-2.6-1-5.4-2.1-8.3-3.5
			c-5.8-2.7-12.5-2.6-18.3,0.1c-2.8,1.3-5.5,2.5-8.1,3.4c-5,1.8-10,3-15.1,3.7c-1.1,0.2-1.9,1.1-2,2.2c-0.5,20.9,4.1,37.9,13.7,51.2
			c1.4,1.9,2.9,3.8,4.5,5.5C83.3,129.3,83.7,129.8,84.2,130.2"/>
		<path style="fill:#43B5B8;" d="M115.1,94.8c0.7-0.6,0.9-1.6,0.6-2.5c-0.3-0.9-1-1.5-1.9-1.6l-8.1-1.2c-0.3,0-0.6-0.3-0.8-0.6
			l-3.6-7.3c-0.4-0.8-1.2-1.3-2.1-1.3c-0.9,0-1.7,0.5-2.1,1.3L93.4,89c-0.2,0.3-0.5,0.5-0.8,0.6l-8.1,1.2c-0.9,0.1-1.6,0.8-1.9,1.6
			c-0.3,0.9-0.1,1.8,0.6,2.5l5.8,5.7c0.2,0.2,0.4,0.6,0.3,0.9l-1.4,8c-0.1,0.7,0.1,1.4,0.5,1.9c0.7,0.8,2,1.1,2.9,0.6l7.2-3.8
			c0.3-0.2,0.7-0.2,1,0l7.2,3.8c0.4,0.2,0.7,0.3,1.1,0.3c0.7,0,1.4-0.3,1.8-0.9c0.5-0.5,0.6-1.2,0.5-1.9l-1.4-8
			c-0.1-0.3,0.1-0.7,0.3-0.9L115.1,94.8z"/>
	</g>
	<g style="opacity:0.2;enable-background:new    ;">
		<g>
			<defs>
				<rect id="SVGID_1_" x="64.4" y="58" width="38" height="79"/>
			</defs>
			<clipPath id="SVGID_2_">
				<use xlink:href="#SVGID_1_"  style="overflow:visible;"/>
			</clipPath>
			<g style="clip-path:url(#SVGID_2_);">
				<defs>
					<rect id="SVGID_3_" x="64.7" y="58.3" width="37.2" height="78.6"/>
				</defs>
				<clipPath id="SVGID_4_">
					<use xlink:href="#SVGID_3_"  style="overflow:visible;"/>
				</clipPath>
				<path style="clip-path:url(#SVGID_4_);fill:#43B5B8;" d="M81.7,126c-9.8-13.6-14.5-31.1-14-52.5c0.1-1.1,0.9-2.1,2-2.3
					c5.2-0.7,10.4-2,15.5-3.8c5.1-1.9,10.6-4.4,16.6-7.8c0,0,0,0,0.1,0c-0.6-0.3-1.1-0.6-1.7-0.9c-0.7-0.4-1.4-0.4-2.2,0
					c-5.8,3.3-11.3,5.8-16.2,7.6c-5,1.8-10,3-15.1,3.7c-1.1,0.2-1.9,1.1-2,2.2c-0.5,20.9,4.1,37.9,13.7,51.2
					c3.8,5.2,8.2,9.7,13.4,13.5C88,133.7,84.7,130,81.7,126"/>
			</g>
		</g>
	</g>
</g>
</svg>
