<svg version="1.1" xmlns="http://www.w3.org/2000/svg" xmlns:xlink="http://www.w3.org/1999/xlink" x="0px" y="0px"
	 viewBox="0 0 45 45" style="enable-background:new 0 0 45 45;" xml:space="preserve">
<g id="crayon">
	<g>
		<path style="fill:#FFFFFF;" d="M36.4,5.7l-7.7-4.6c-0.1-0.1-0.2,0-0.3,0.1l-1.3,2.1c-0.1,0.1,0,0.2,0.1,0.3L35,8.1
			c0.1,0.1,0.2,0,0.3-0.1L36.5,6C36.6,5.9,36.5,5.7,36.4,5.7z"/>
		<path style="fill:#FFFFFF;" d="M17.9,36.4l-7.7-4.6c-0.1-0.1-0.2,0-0.3,0.1L8.7,34c-0.1,0.1,0,0.2,0.1,0.3l1,0.6l-1.6,7.4
			c0,0.1,0,0.2,0.1,0.2l1.1,0.6c0.1,0,0.2,0,0.2,0l5.8-4.9l1,0.6c0.1,0.1,0.2,0,0.3-0.1l1.3-2.1C18,36.6,18,36.5,17.9,36.4z"/>
		<path style="fill:#FFFFFF;" d="M34,9.7l-7.7-4.6c-0.1-0.1-0.2,0-0.3,0.1L11.2,30c-0.1,0.1,0,0.2,0.1,0.3l7.7,4.6
			c0.1,0.1,0.2,0,0.3-0.1L34.1,10C34.1,9.9,34.1,9.8,34,9.7z M19,26c-1.3-0.8-0.7-4.1,1.3-7.4c2-3.3,4.6-5.4,5.9-4.7
			c1.3,0.8,0.7,4.1-1.3,7.4C22.9,24.7,20.3,26.8,19,26z"/>
	</g>
</g>
</svg>
