<svg version="1.1" xmlns="http://www.w3.org/2000/svg" xmlns:xlink="http://www.w3.org/1999/xlink" x="0px" y="0px"
	 viewBox="0 0 40 50" style="enable-background:new 0 0 40 50;" xml:space="preserve">
<g>
	<path class="jar-fill" d="M32.4,7.1v-1H33c0.3,0,0.6-0.2,0.6-0.5V2.4c0-0.3-0.3-0.5-0.6-0.5H7c-0.3,0-0.6,0.2-0.6,0.5v3.1
		c0,0.3,0.3,0.5,0.6,0.5h0.6v1c-2.7,0-5,1.9-5,4.1V13v2.1v0.7v28.4c0,2.3,2.2,4.2,5,4.2h24.8c2.7,0,5-1.9,5-4.2V15.8v-0.7V13v-1.7
		C37.3,9,35.1,7.1,32.4,7.1z"/>
	<path style="opacity:0.2;fill:#FFFFFF;" d="M12,44.1V15.8v-0.7V13v-1.7c0-2.3,2.2-4.1,5-4.1v-1h-0.6c-0.3,0-0.6-0.2-0.6-0.5V2.4
		c0-0.3,0.3-0.5,0.6-0.5H7c-0.3,0-0.6,0.2-0.6,0.5v3.1c0,0.3,0.3,0.5,0.6,0.5h0.6v1c-2.7,0-5,1.9-5,4.1V13v2.1v0.7v28.4
		c0,2.3,2.2,4.2,5,4.2h9.4C14.2,48.3,12,46.4,12,44.1z"/>
	<path style="fill:#FFFFFF;" d="M19.8,22.6c0.8-1.8,2.7-3.5,4.8-3.5c2.9,0,5.1,2.3,5.4,5.1c0,0,0.2,0.7-0.2,2
		c-0.4,1.7-1.4,3.3-2.8,4.4l-7,6c-0.1,0.1-0.2,0.1-0.2,0l-7-6c-1.4-1.2-2.4-2.7-2.8-4.4c-0.3-1.3-0.2-2-0.2-2
		c0.3-2.8,2.3-5.1,5.2-5.1C17.2,19.1,19.1,20.8,19.8,22.6"/>
	<path class="heart-fill" d="M19.8,22.6c0.8-1.8,2.7-3.5,4.8-3.5c2.9,0,5.1,2.3,5.4,5.1c0,0,0.2,0.7-0.2,2
		c-0.4,1.7-1.4,3.3-2.8,4.4l-7,6c-0.1,0.1-0.2,0.1-0.2,0l-7-6c-1.4-1.2-2.4-2.7-2.8-4.4c-0.3-1.3-0.2-2-0.2-2
		c0.3-2.8,2.3-5.1,5.2-5.1C17.2,19.1,19.1,20.8,19.8,22.6"/>

</g>
</svg>
