<svg version="1.1" id="footer-logo-svg" xmlns="http://www.w3.org/2000/svg" xmlns:xlink="http://www.w3.org/1999/xlink" x="0px" y="0px"
	 viewBox="0 0 55 70" style="enable-background:new 0 0 55 70;" xml:space="preserve">
<g>
	<path class="blink1" style="fill:#FFFFFF;" d="M13,25.9H3.2c-1,0-1.7-0.8-1.7-1.7c0-1,0.8-1.7,1.7-1.7H13c1,0,1.7,0.8,1.7,1.7
		C14.7,25.1,14,25.9,13,25.9z"/>
</g>
<g>
	<path class="blink2" style="fill:#FFFFFF;" d="M24.2,14.7c-1,0-1.7-0.8-1.7-1.7V3.2c0-1,0.8-1.7,1.7-1.7c1,0,1.7,0.8,1.7,1.7V13
		C25.9,13.9,25.1,14.7,24.2,14.7z"/>
</g>
<g>
	<path class="blink3" style="fill:#FFFFFF;" d="M17.1,19c-0.4,0-0.9-0.2-1.2-0.5l-8.2-8.2C7,9.6,7,8.5,7.7,7.8c0.7-0.7,1.8-0.7,2.5,0l8.2,8.2
		c0.7,0.7,0.7,1.8,0,2.5C18,18.8,17.5,19,17.1,19z"/>
</g>
</svg>
