<svg version="1.1" id="logo-svg" xmlns="http://www.w3.org/2000/svg" xmlns:xlink="http://www.w3.org/1999/xlink" x="0px" y="0px"
	 viewBox="0 0 250 100" style="enable-background:new 0 0 250 100;" xml:space="preserve">
<g>
	<path style="fill:#43B7BA;" d="M50.9,30.8v-1h0.6c0.3,0,0.6-0.2,0.6-0.5v-3.1c0-0.3-0.3-0.5-0.6-0.5h-26c-0.3,0-0.6,0.2-0.6,0.5
		v3.1c0,0.3,0.3,0.5,0.6,0.5h0.6v1c-2.7,0-5,1.9-5,4.1v1.7v2.1v0.7v28.4c0,2.3,2.2,4.2,5,4.2h24.8c2.7,0,5-1.9,5-4.2V39.5v-0.7v-2.1
		v-1.7C55.9,32.7,53.6,30.8,50.9,30.8z"/>
	<path style="fill:#E76647;" d="M65.6,56.3c0-10.4,6.8-15.9,15.6-15.9c8.8,0,15.6,6.2,15.6,15.9c0,10.4-6.8,15.9-15.6,15.9
		c-2.5,0-6.7-1.1-8.7-3.7v24.2c0,0.7-0.4,1-1,1h-4.8c-0.7,0-1.1-0.4-1.1-1V56.3z M81.1,65.6c3.8,0,8.7-1.8,8.7-9.3
		c0-7.5-4.9-9.3-8.7-9.3c-3.8,0-8.7,1.8-8.7,9.3C72.4,63.8,77.3,65.6,81.1,65.6z"/>
	<path style="fill:#E76647;" d="M126.6,25.2c2.3,0,4.2,1.9,4.2,4.2c0,2.3-1.9,4.2-4.2,4.2c-2.3,0-4.2-1.9-4.2-4.2
		C122.4,27.1,124.3,25.2,126.6,25.2z M130,70.3c0,0.7-0.4,1-1,1h-4.8c-0.7,0-1.1-0.4-1.1-1V42.4c0-0.7,0.4-1,1.1-1h4.8
		c0.7,0,1,0.4,1,1V70.3z"/>
	<path style="fill:#E76647;" d="M146.7,55.4v14.8c0,0.7-0.4,1-1.1,1h-4.8c-0.7,0-1-0.4-1-1V55.4c0-10,6.4-15,14.7-15
		c8.3,0,14.7,5,14.7,15v14.8c0,0.7-0.4,1-1,1h-4.8c-0.7,0-1-0.4-1-1V55.4c0-6.9-4.4-8.4-7.8-8.4C151.1,47,146.7,48.5,146.7,55.4z"/>
	<path style="fill:#43B7BA;" d="M216,25.2c2.3,0,4.2,1.9,4.2,4.2c0,2.3-1.9,4.2-4.2,4.2c-2.3,0-4.2-1.9-4.2-4.2
		C211.8,27.1,213.7,25.2,216,25.2z M219.5,70.3c0,0.7-0.4,1-1,1h-4.8c-0.7,0-1.1-0.4-1.1-1V42.4c0-0.7,0.4-1,1.1-1h4.8
		c0.7,0,1,0.4,1,1V70.3z"/>
	<path style="fill:#E76647;" d="M193.5,56.3l10.2-14.2c0.2-0.3,0.1-0.8-0.4-0.8h-6.3c-0.7,0-1.3,0.3-1.6,0.9L187.8,53l-2,2.6V53
		v-0.9V19.9c0-0.7-0.4-1-1-1h-4.8c-0.7,0-1,0.4-1,1v50.4c0,0.7,0.4,1,1,1h4.8c0.7,0,1-0.4,1-1v-6.4v-4.2v-2.5l1.9,2.5l7.6,10.9
		c0.4,0.5,1,0.8,1.6,0.8h6.3c0.5,0,0.7-0.5,0.4-0.8L193.5,56.3z"/>
	<path style="fill:#E76647;" d="M115.2,66c-0.1-0.1-0.2-0.1-0.4-0.1c0,0-0.5,0.1-1,0.1c-1.4,0-2.7-0.3-2.7-3.8V32.5h0V18.1
		c0-0.7-0.4-1-1-1h-4.7c-0.7,0-1,0.4-1,1v11v3.4v30.7c0,6,2.9,9,8.6,9c1,0,1.9-0.1,2-0.1c0.2,0,0.4-0.2,0.4-0.5v-5.2
		C115.4,66.2,115.3,66.1,115.2,66z"/>
	<path style="fill:#43B7BA;" d="M245.5,65.8c-0.1-0.1-0.3-0.1-0.4-0.1c0,0-0.5,0.1-1.3,0.1c-2.3,0-6.1-0.8-6.1-6.5v-6.5v-5.7h7
		c0.3,0,0.5-0.2,0.5-0.5v-4.8c0-0.3-0.2-0.5-0.5-0.5h-7v-8.4c0-0.3-0.2-0.5-0.5-0.5h-5.8c-0.3,0-0.5,0.2-0.5,0.5v8.4h-3.7
		c-0.3,0-0.5,0.2-0.5,0.5v4.8c0,0.3,0.2,0.5,0.5,0.5h3.5v5.7V60c0,10.9,8.7,12.1,12.4,12.1c1.2,0,2.1-0.1,2.2-0.1
		c0.3,0,0.4-0.3,0.4-0.5v-5.3C245.7,66.1,245.6,65.9,245.5,65.8z"/>
	<path style="opacity:0.2;fill:#FFFFFF;" d="M30.5,67.8V39.5v-0.7v-2.1v-1.7c0-2.3,2.2-4.1,5-4.1v-1h-0.6c-0.3,0-0.6-0.2-0.6-0.5
		v-3.1c0-0.3,0.3-0.5,0.6-0.5h-9.4c-0.3,0-0.6,0.2-0.6,0.5v3.1c0,0.3,0.3,0.5,0.6,0.5h0.6v1c-2.7,0-5,1.9-5,4.1v1.7v2.1v0.7v28.4
		c0,2.3,2.2,4.2,5,4.2h9.4C32.8,72,30.5,70.1,30.5,67.8z"/>
</g>
</svg>
