<svg version="1.1" id="footer-logo-svg" xmlns="http://www.w3.org/2000/svg" xmlns:xlink="http://www.w3.org/1999/xlink" x="0px" y="0px"
	 viewBox="0 0 55 70" style="enable-background:new 0 0 55 70;" xml:space="preserve">
<path style="fill:#46b8ba;" d="M48.4,26.8v-1H49c0.3,0,0.6-0.2,0.6-0.5v-3.1c0-0.3-0.3-0.5-0.6-0.5H23c-0.3,0-0.6,0.2-0.6,0.5v3.1
	c0,0.3,0.3,0.5,0.6,0.5h0.6v1c-2.7,0-5,1.9-5,4.1v1.7v2.1v0.7v28.4c0,2.3,2.2,4.2,5,4.2h24.8c2.7,0,5-1.9,5-4.2V35.5v-0.7v-2.1v-1.7
	C53.4,28.7,51.1,26.8,48.4,26.8z"/>
<g>
	<path style="fill:#e5674c;" d="M13,25.9H3.2c-1,0-1.7-0.8-1.7-1.7c0-1,0.8-1.7,1.7-1.7H13c1,0,1.7,0.8,1.7,1.7
		C14.7,25.1,14,25.9,13,25.9z"/>
</g>
<g>
	<path style="fill:#e5674c;" d="M24.2,14.7c-1,0-1.7-0.8-1.7-1.7V3.2c0-1,0.8-1.7,1.7-1.7c1,0,1.7,0.8,1.7,1.7V13
		C25.9,13.9,25.1,14.7,24.2,14.7z"/>
</g>
<g>
	<path style="fill:#e5674c;" d="M17.1,19c-0.4,0-0.9-0.2-1.2-0.5l-8.2-8.2C7,9.6,7,8.5,7.7,7.8c0.7-0.7,1.8-0.7,2.5,0l8.2,8.2
		c0.7,0.7,0.7,1.8,0,2.5C18,18.8,17.5,19,17.1,19z"/>
</g>
<path style="opacity:0.2;fill:#ffffff;" d="M28,63.8V35.5v-0.7v-2.1v-1.7c0-2.3,2.2-4.1,5-4.1v-1h-0.6c-0.3,0-0.6-0.2-0.6-0.5v-3.1
	c0-0.3,0.3-0.5,0.6-0.5H23c-0.3,0-0.6,0.2-0.6,0.5v3.1c0,0.3,0.3,0.5,0.6,0.5h0.6v1c-2.7,0-5,1.9-5,4.1v1.7v2.1v0.7v28.4
	c0,2.3,2.2,4.2,5,4.2H33C30.3,68,28,66.1,28,63.8z"/>
</svg>
