<svg version="1.1" xmlns="http://www.w3.org/2000/svg" xmlns:xlink="http://www.w3.org/1999/xlink" x="0px" y="0px"
	 viewBox="0 0 45 45" style="enable-background:new 0 0 45 45;" xml:space="preserve">
<g id="light">
	<g>
		<path style="fill:#FFFFFF;" d="M26.2,40.7H18c-0.2,0-0.3,0.1-0.4,0.2c-0.1,0.1,0,0.3,0,0.4c1.4,1.8,2.9,2.7,4.4,2.7
			c1.5,0,3-0.9,4.4-2.7c0.1-0.1,0.1-0.3,0-0.4C26.5,40.8,26.4,40.7,26.2,40.7z"/>
		<g>
			<path style="fill:#FFFFFF;" d="M35.4,11.1c-0.7-3.8-2.6-6.6-5.8-8.4c-4.9-2.7-10-2.7-14.9,0.1c-2.2,1.2-3.8,3-4.8,5.3
				c-1.4,3.3-1.5,6.7-0.3,10.2c0.7,2.1,1.8,3.9,2.9,5.8l0.4,0.6c1.4,2.5,2.6,4.5,2.6,7.1c0,0.2,0.2,0.4,0.4,0.4h12.6
				c0.2,0,0.4-0.1,0.4-0.3l0.1-0.6c0.1-0.4,0.1-0.7,0.2-1.1c0.3-1.8,1.2-3.3,2.1-4.9l0.4-0.8c0.2-0.4,0.5-0.9,0.7-1.3
				c0.6-1.1,1.2-2.2,1.8-3.3C35.5,17.1,35.9,14.1,35.4,11.1z"/>
			<path style="opacity:0.2;fill:#E76647;" d="M17.8,31.8c0-2.5-1.1-4.6-2.6-7.1l-0.4-0.6c-1.1-1.8-2.2-3.7-2.9-5.8
				c-1.2-3.5-1.1-6.9,0.3-10.2c1-2.3,2.6-4.1,4.8-5.3c2.1-1.2,4.2-1.8,6.4-2c-2.9-0.2-5.8,0.4-8.7,2c-2.2,1.2-3.8,3-4.8,5.3
				c-1.4,3.3-1.5,6.7-0.3,10.2c0.7,2.1,1.8,3.9,2.9,5.8l0.4,0.6c1.4,2.5,2.6,4.5,2.6,7.1c0,0.2,0.2,0.4,0.4,0.4h2.3
				C17.9,32.2,17.8,32.1,17.8,31.8z"/>
		</g>
		<path style="fill:#FFFFFF;" d="M27.3,38.3c0,0.7-0.5,1.3-1,1.3h-8.1c-0.6,0-1-0.6-1-1.3l0,0c0-0.7,0.5-1.3,1-1.3h8.1
			C26.8,37,27.3,37.6,27.3,38.3L27.3,38.3z"/>
		<path style="fill:#FFFFFF;" d="M28.9,34.6c0,0.7-0.6,1.2-1.2,1.2H16.8c-0.7,0-1.2-0.6-1.2-1.2l0,0c0-0.7,0.6-1.2,1.2-1.2h10.8
			C28.3,33.4,28.9,33.9,28.9,34.6L28.9,34.6z"/>
	</g>
</g>
</svg>
