<svg version="1.1" id="plinks-svg" xmlns="http://www.w3.org/2000/svg" xmlns:xlink="http://www.w3.org/1999/xlink" x="0px" y="0px"
	 viewBox="0 0 250 100" style="enable-background:new 0 0 250 100;" xml:space="preserve">
	 <g>
	<g class="blink1">
		<path style="fill:#E76647;" d="M15.5,29.9H5.7c-1,0-1.7-0.8-1.7-1.7c0-1,0.8-1.7,1.7-1.7h9.8c1,0,1.7,0.8,1.7,1.7
			C17.2,29.1,16.5,29.9,15.5,29.9z"/>
	</g>
	<g class="blink2">
		<path style="fill:#E76647;" d="M19.6,23c-0.4,0-0.9-0.2-1.2-0.5l-8.2-8.2c-0.7-0.7-0.7-1.8,0-2.5c0.7-0.7,1.8-0.7,2.5,0l8.2,8.2
			c0.7,0.7,0.7,1.8,0,2.5C20.5,22.8,20,23,19.6,23z"/>
	</g>
	<g class="blink3">
		<path style="fill:#E76647;" d="M26.7,18.7c-1,0-1.7-0.8-1.7-1.7V7.2c0-1,0.8-1.7,1.7-1.7c1,0,1.7,0.8,1.7,1.7V17
			C28.4,17.9,27.6,18.7,26.7,18.7z"/>
	</g>
</g>
</svg>
