<svg version="1.1" id="search-svg" xmlns="http://www.w3.org/2000/svg" xmlns:xlink="http://www.w3.org/1999/xlink" x="0px" y="0px"
	 viewBox="0 0 30 30" style="enable-background:new 0 0 30 30;" xml:space="preserve">
<path style="fill:#ffffff;" d="M29.1,27.4l-7-7c1.7-2.1,2.7-4.8,2.7-7.7c0-6.7-5.4-12.1-12.1-12.1C6.1,0.6,0.6,6.1,0.6,12.7
	c0,6.7,5.4,12.1,12.1,12.1c2.9,0,5.6-1,7.7-2.7l7,7c0.2,0.2,0.5,0.3,0.8,0.3c0.3,0,0.6-0.1,0.8-0.3C29.6,28.6,29.6,27.9,29.1,27.4z
	 M3,12.7C3,7.4,7.4,3,12.7,3s9.7,4.4,9.7,9.7s-4.4,9.7-9.7,9.7S3,18.1,3,12.7z"/>
</svg>
